<?xml version="1.0" encoding="UTF-8" standalone="no"?>
<!DOCTYPE svg PUBLIC "-//W3C//DTD SVG 1.1//EN"
 "http://www.w3.org/Graphics/SVG/1.1/DTD/svg11.dtd">
<!-- Generated by graphviz version 2.47.0 (20210316.0004)
 -->
<!-- Title: dependencies Pages: 1 -->
<svg width="1184pt" height="284pt"
 viewBox="0.00 0.00 1184.00 284.00" xmlns="http://www.w3.org/2000/svg" xmlns:xlink="http://www.w3.org/1999/xlink">
<g id="graph0" class="graph" transform="scale(1 1) rotate(0) translate(4 280)">
<title>dependencies</title>
<polygon fill="white" stroke="transparent" points="-4,4 -4,-280 1180,-280 1180,4 -4,4"/>
<text text-anchor="start" x="567.01" y="-42.4" font-family="Times-12" font-weight="bold" font-size="14.00">Legend</text>
<polygon fill="#ffffb3" stroke="transparent" points="354,-10 354,-30 374,-30 374,-10 354,-10"/>
<text text-anchor="start" x="377.63" y="-15.4" font-family="Times-12" font-size="14.00"> &#160;Declarations</text>
<polygon fill="#8dd3c7" stroke="transparent" points="467,-10 467,-30 487,-30 487,-10 467,-10"/>
<text text-anchor="start" x="490.73" y="-15.4" font-family="Times-12" font-size="14.00"> &#160;Module</text>
<polygon fill="#80b1d3" stroke="transparent" points="553,-10 553,-30 573,-30 573,-10 553,-10"/>
<text text-anchor="start" x="576.78" y="-15.4" font-family="Times-12" font-size="14.00"> &#160;Bootstrap</text>
<polygon fill="#fdb462" stroke="transparent" points="650,-10 650,-30 670,-30 670,-10 650,-10"/>
<text text-anchor="start" x="673.67" y="-15.4" font-family="Times-12" font-size="14.00"> &#160;Providers</text>
<polygon fill="#fb8072" stroke="transparent" points="746,-10 746,-30 766,-30 766,-10 746,-10"/>
<text text-anchor="start" x="769.73" y="-15.4" font-family="Times-12" font-size="14.00"> &#160;Exports</text>
<g id="clust1" class="cluster">
<title>cluster_CommonModule</title>
<polygon fill="none" stroke="black" stroke-dasharray="1,5" points="8,-70 8,-268 1168,-268 1168,-70 8,-70"/>
</g>
<g id="clust4" class="cluster">
<title>cluster_CommonModule_exports</title>
<polygon fill="none" stroke="black" points="294,-208 294,-260 937,-260 937,-208 294,-208"/>
</g>
<g id="clust3" class="cluster">
<title>cluster_CommonModule_imports</title>
<polygon fill="none" stroke="black" points="1052,-78 1052,-130 1160,-130 1160,-78 1052,-78"/>
</g>
<g id="clust6" class="cluster">
<title>cluster_CommonModule_providers</title>
<polygon fill="none" stroke="black" points="16,-78 16,-130 1044,-130 1044,-78 16,-78"/>
</g>
<!-- RedisModule -->
<g id="node1" class="node">
<title>RedisModule</title>
<polygon fill="#8dd3c7" stroke="black" points="1151.94,-122 1148.94,-126 1127.94,-126 1124.94,-122 1060.06,-122 1060.06,-86 1151.94,-86 1151.94,-122"/>
<text text-anchor="middle" x="1106" y="-99.8" font-family="Times,serif" font-size="14.00">RedisModule</text>
</g>
<!-- CommonModule -->
<g id="node2" class="node">
<title>CommonModule</title>
<polygon fill="#8dd3c7" stroke="black" points="635.67,-187 632.67,-191 611.67,-191 608.67,-187 524.33,-187 524.33,-151 635.67,-151 635.67,-187"/>
<text text-anchor="middle" x="580" y="-164.8" font-family="Times,serif" font-size="14.00">CommonModule</text>
</g>
<!-- RedisModule&#45;&gt;CommonModule -->
<g id="edge1" class="edge">
<title>RedisModule&#45;&gt;CommonModule</title>
<path fill="none" stroke="black" d="M1106,-122.11C1106,-141.34 1106,-169 1106,-169 1106,-169 645.79,-169 645.79,-169"/>
<polygon fill="black" stroke="black" points="645.79,-165.5 635.79,-169 645.79,-172.5 645.79,-165.5"/>
</g>
<!-- ConvertUtilsService  -->
<g id="node3" class="node">
<title>ConvertUtilsService </title>
<polygon fill="#fb8072" stroke="black" points="928.8,-252 795.2,-252 795.2,-216 928.8,-216 928.8,-252"/>
<text text-anchor="middle" x="862" y="-229.8" font-family="Times,serif" font-size="14.00">ConvertUtilsService </text>
</g>
<!-- CommonModule&#45;&gt;ConvertUtilsService  -->
<g id="edge2" class="edge">
<title>CommonModule&#45;&gt;ConvertUtilsService </title>
<path fill="none" stroke="black" stroke-dasharray="5,2" d="M635.75,-175C705.67,-175 816.5,-175 816.5,-175 816.5,-175 816.5,-205.98 816.5,-205.98"/>
<polygon fill="black" stroke="black" points="813,-205.98 816.5,-215.98 820,-205.98 813,-205.98"/>
</g>
<!-- EncryptionService  -->
<g id="node4" class="node">
<title>EncryptionService </title>
<polygon fill="#fb8072" stroke="black" points="776.69,-252 653.31,-252 653.31,-216 776.69,-216 776.69,-252"/>
<text text-anchor="middle" x="715" y="-229.8" font-family="Times,serif" font-size="14.00">EncryptionService </text>
</g>
<!-- CommonModule&#45;&gt;EncryptionService  -->
<g id="edge3" class="edge">
<title>CommonModule&#45;&gt;EncryptionService </title>
<path fill="none" stroke="black" stroke-dasharray="5,2" d="M635.78,-181C650.79,-181 662.94,-181 662.94,-181 662.94,-181 662.94,-205.76 662.94,-205.76"/>
<polygon fill="black" stroke="black" points="659.44,-205.76 662.94,-215.76 666.44,-205.76 659.44,-205.76"/>
</g>
<!-- PaymentService  -->
<g id="node5" class="node">
<title>PaymentService </title>
<polygon fill="#fb8072" stroke="black" points="635.47,-252 524.53,-252 524.53,-216 635.47,-216 635.47,-252"/>
<text text-anchor="middle" x="580" y="-229.8" font-family="Times,serif" font-size="14.00">PaymentService </text>
</g>
<!-- CommonModule&#45;&gt;PaymentService  -->
<g id="edge4" class="edge">
<title>CommonModule&#45;&gt;PaymentService </title>
<path fill="none" stroke="black" stroke-dasharray="5,2" d="M580,-187.11C580,-187.11 580,-205.99 580,-205.99"/>
<polygon fill="black" stroke="black" points="576.5,-205.99 580,-215.99 583.5,-205.99 576.5,-205.99"/>
</g>
<!-- RedisService  -->
<g id="node6" class="node">
<title>RedisService </title>
<polygon fill="#fb8072" stroke="black" points="506.86,-252 413.14,-252 413.14,-216 506.86,-216 506.86,-252"/>
<text text-anchor="middle" x="460" y="-229.8" font-family="Times,serif" font-size="14.00">RedisService </text>
</g>
<!-- CommonModule&#45;&gt;RedisService  -->
<g id="edge5" class="edge">
<title>CommonModule&#45;&gt;RedisService </title>
<path fill="none" stroke="black" stroke-dasharray="5,2" d="M523.92,-181C509.18,-181 497.3,-181 497.3,-181 497.3,-181 497.3,-205.76 497.3,-205.76"/>
<polygon fill="black" stroke="black" points="493.8,-205.76 497.3,-215.76 500.8,-205.76 493.8,-205.76"/>
</g>
<!-- UsersService  -->
<g id="node7" class="node">
<title>UsersService </title>
<polygon fill="#fb8072" stroke="black" points="395.85,-252 302.15,-252 302.15,-216 395.85,-216 395.85,-252"/>
<text text-anchor="middle" x="349" y="-229.8" font-family="Times,serif" font-size="14.00">UsersService </text>
</g>
<!-- CommonModule&#45;&gt;UsersService  -->
<g id="edge6" class="edge">
<title>CommonModule&#45;&gt;UsersService </title>
<path fill="none" stroke="black" stroke-dasharray="5,2" d="M524.14,-175C456.53,-175 351.64,-175 351.64,-175 351.64,-175 351.64,-205.98 351.64,-205.98"/>
<polygon fill="black" stroke="black" points="348.14,-205.98 351.64,-215.98 355.14,-205.98 348.14,-205.98"/>
</g>
<!-- ConvertUtilsService -->
<g id="node8" class="node">
<title>ConvertUtilsService</title>
<ellipse fill="#fdb462" stroke="black" cx="946" cy="-104" rx="89.76" ry="18"/>
<text text-anchor="middle" x="946" y="-99.8" font-family="Times,serif" font-size="14.00">ConvertUtilsService</text>
</g>
<!-- ConvertUtilsService&#45;&gt;CommonModule -->
<g id="edge7" class="edge">
<title>ConvertUtilsService&#45;&gt;CommonModule</title>
<path fill="none" stroke="black" d="M892.51,-118.58C892.51,-136.06 892.51,-163 892.51,-163 892.51,-163 645.87,-163 645.87,-163"/>
<polygon fill="black" stroke="black" points="645.87,-159.5 635.87,-163 645.87,-166.5 645.87,-159.5"/>
</g>
<!-- EncryptionService -->
<g id="node9" class="node">
<title>EncryptionService</title>
<ellipse fill="#fdb462" stroke="black" cx="755" cy="-104" rx="82.81" ry="18"/>
<text text-anchor="middle" x="755" y="-99.8" font-family="Times,serif" font-size="14.00">EncryptionService</text>
</g>
<!-- EncryptionService&#45;&gt;CommonModule -->
<g id="edge8" class="edge">
<title>EncryptionService&#45;&gt;CommonModule</title>
<path fill="none" stroke="black" d="M724.47,-120.77C724.47,-136.3 724.47,-157 724.47,-157 724.47,-157 645.86,-157 645.86,-157"/>
<polygon fill="black" stroke="black" points="645.86,-153.5 635.86,-157 645.86,-160.5 645.86,-153.5"/>
</g>
<!-- PaymentService -->
<g id="node10" class="node">
<title>PaymentService</title>
<ellipse fill="#fdb462" stroke="black" cx="580" cy="-104" rx="73.57" ry="18"/>
<text text-anchor="middle" x="580" y="-99.8" font-family="Times,serif" font-size="14.00">PaymentService</text>
</g>
<!-- PaymentService&#45;&gt;CommonModule -->
<g id="edge9" class="edge">
<title>PaymentService&#45;&gt;CommonModule</title>
<path fill="none" stroke="black" d="M580,-122.11C580,-122.11 580,-140.99 580,-140.99"/>
<polygon fill="black" stroke="black" points="576.5,-140.99 580,-150.99 583.5,-140.99 576.5,-140.99"/>
</g>
<!-- QueryHelperService -->
<g id="node11" class="node">
<title>QueryHelperService</title>
<ellipse fill="#fdb462" stroke="black" cx="398" cy="-104" rx="90.29" ry="18"/>
<text text-anchor="middle" x="398" y="-99.8" font-family="Times,serif" font-size="14.00">QueryHelperService</text>
</g>
<!-- QueryHelperService&#45;&gt;CommonModule -->
<g id="edge10" class="edge">
<title>QueryHelperService&#45;&gt;CommonModule</title>
<path fill="none" stroke="black" d="M450.86,-118.76C450.86,-134.45 450.86,-157 450.86,-157 450.86,-157 514.11,-157 514.11,-157"/>
<polygon fill="black" stroke="black" points="514.11,-160.5 524.11,-157 514.11,-153.5 514.11,-160.5"/>
</g>
<!-- RedisService -->
<g id="node12" class="node">
<title>RedisService</title>
<ellipse fill="#fdb462" stroke="black" cx="228" cy="-104" rx="61.97" ry="18"/>
<text text-anchor="middle" x="228" y="-99.8" font-family="Times,serif" font-size="14.00">RedisService</text>
</g>
<!-- RedisService&#45;&gt;CommonModule -->
<g id="edge11" class="edge">
<title>RedisService&#45;&gt;CommonModule</title>
<path fill="none" stroke="black" d="M228,-122.02C228,-139.37 228,-163 228,-163 228,-163 514.22,-163 514.22,-163"/>
<polygon fill="black" stroke="black" points="514.22,-166.5 524.22,-163 514.22,-159.5 514.22,-166.5"/>
</g>
<!-- UsersService -->
<g id="node13" class="node">
<title>UsersService</title>
<ellipse fill="#fdb462" stroke="black" cx="86" cy="-104" rx="61.95" ry="18"/>
<text text-anchor="middle" x="86" y="-99.8" font-family="Times,serif" font-size="14.00">UsersService</text>
</g>
<!-- UsersService&#45;&gt;CommonModule -->
<g id="edge12" class="edge">
<title>UsersService&#45;&gt;CommonModule</title>
<path fill="none" stroke="black" d="M86,-122.11C86,-141.34 86,-169 86,-169 86,-169 514.29,-169 514.29,-169"/>
<polygon fill="black" stroke="black" points="514.29,-172.5 524.29,-169 514.29,-165.5 514.29,-172.5"/>
</g>
</g>
</svg>
