<?xml version="1.0" encoding="UTF-8" standalone="no"?>
<!DOCTYPE svg PUBLIC "-//W3C//DTD SVG 1.1//EN"
 "http://www.w3.org/Graphics/SVG/1.1/DTD/svg11.dtd">
<!-- Generated by graphviz version 2.47.0 (20210316.0004)
 -->
<!-- Title: dependencies Pages: 1 -->
<svg width="1184pt" height="284pt"
 viewBox="0.00 0.00 1184.00 284.00" xmlns="http://www.w3.org/2000/svg" xmlns:xlink="http://www.w3.org/1999/xlink">
<g id="graph0" class="graph" transform="scale(1 1) rotate(0) translate(4 280)">
<title>dependencies</title>
<polygon fill="white" stroke="transparent" points="-4,4 -4,-280 1180,-280 1180,4 -4,4"/>
<text text-anchor="start" x="567.01" y="-42.4" font-family="Times-12" font-weight="bold" font-size="14.00">Legend</text>
<polygon fill="#ffffb3" stroke="transparent" points="354,-10 354,-30 374,-30 374,-10 354,-10"/>
<text text-anchor="start" x="377.63" y="-15.4" font-family="Times-12" font-size="14.00"> &#160;Declarations</text>
<polygon fill="#8dd3c7" stroke="transparent" points="467,-10 467,-30 487,-30 487,-10 467,-10"/>
<text text-anchor="start" x="490.73" y="-15.4" font-family="Times-12" font-size="14.00"> &#160;Module</text>
<polygon fill="#80b1d3" stroke="transparent" points="553,-10 553,-30 573,-30 573,-10 553,-10"/>
<text text-anchor="start" x="576.78" y="-15.4" font-family="Times-12" font-size="14.00"> &#160;Bootstrap</text>
<polygon fill="#fdb462" stroke="transparent" points="650,-10 650,-30 670,-30 670,-10 650,-10"/>
<text text-anchor="start" x="673.67" y="-15.4" font-family="Times-12" font-size="14.00"> &#160;Providers</text>
<polygon fill="#fb8072" stroke="transparent" points="746,-10 746,-30 766,-30 766,-10 746,-10"/>
<text text-anchor="start" x="769.73" y="-15.4" font-family="Times-12" font-size="14.00"> &#160;Exports</text>
<g id="clust1" class="cluster">
<title>cluster_CommonModule</title>
<polygon fill="none" stroke="black" stroke-dasharray="1,5" points="8,-70 8,-268 1168,-268 1168,-70 8,-70"/>
</g>
<g id="clust6" class="cluster">
<title>cluster_CommonModule_providers</title>
<polygon fill="none" stroke="black" points="132,-78 132,-130 1160,-130 1160,-78 132,-78"/>
</g>
<g id="clust3" class="cluster">
<title>cluster_CommonModule_imports</title>
<polygon fill="none" stroke="black" points="16,-78 16,-130 124,-130 124,-78 16,-78"/>
</g>
<g id="clust4" class="cluster">
<title>cluster_CommonModule_exports</title>
<polygon fill="none" stroke="black" points="228,-208 228,-260 871,-260 871,-208 228,-208"/>
</g>
<!-- RedisModule -->
<g id="node1" class="node">
<title>RedisModule</title>
<polygon fill="#8dd3c7" stroke="black" points="115.94,-122 112.94,-126 91.94,-126 88.94,-122 24.06,-122 24.06,-86 115.94,-86 115.94,-122"/>
<text text-anchor="middle" x="70" y="-99.8" font-family="Times,serif" font-size="14.00">RedisModule</text>
</g>
<!-- CommonModule -->
<g id="node2" class="node">
<title>CommonModule</title>
<polygon fill="#8dd3c7" stroke="black" points="569.67,-187 566.67,-191 545.67,-191 542.67,-187 458.33,-187 458.33,-151 569.67,-151 569.67,-187"/>
<text text-anchor="middle" x="514" y="-164.8" font-family="Times,serif" font-size="14.00">CommonModule</text>
</g>
<!-- RedisModule&#45;&gt;CommonModule -->
<g id="edge1" class="edge">
<title>RedisModule&#45;&gt;CommonModule</title>
<path fill="none" stroke="black" d="M70,-122.11C70,-141.34 70,-169 70,-169 70,-169 448.22,-169 448.22,-169"/>
<polygon fill="black" stroke="black" points="448.22,-172.5 458.22,-169 448.22,-165.5 448.22,-172.5"/>
</g>
<!-- ConvertUtilsService  -->
<g id="node3" class="node">
<title>ConvertUtilsService </title>
<polygon fill="#fb8072" stroke="black" points="862.8,-252 729.2,-252 729.2,-216 862.8,-216 862.8,-252"/>
<text text-anchor="middle" x="796" y="-229.8" font-family="Times,serif" font-size="14.00">ConvertUtilsService </text>
</g>
<!-- CommonModule&#45;&gt;ConvertUtilsService  -->
<g id="edge2" class="edge">
<title>CommonModule&#45;&gt;ConvertUtilsService </title>
<path fill="none" stroke="black" stroke-dasharray="5,2" d="M569.8,-175C639.42,-175 749.44,-175 749.44,-175 749.44,-175 749.44,-205.98 749.44,-205.98"/>
<polygon fill="black" stroke="black" points="745.94,-205.98 749.44,-215.98 752.94,-205.98 745.94,-205.98"/>
</g>
<!-- EncryptionService  -->
<g id="node4" class="node">
<title>EncryptionService </title>
<polygon fill="#fb8072" stroke="black" points="710.69,-252 587.31,-252 587.31,-216 710.69,-216 710.69,-252"/>
<text text-anchor="middle" x="649" y="-229.8" font-family="Times,serif" font-size="14.00">EncryptionService </text>
</g>
<!-- CommonModule&#45;&gt;EncryptionService  -->
<g id="edge3" class="edge">
<title>CommonModule&#45;&gt;EncryptionService </title>
<path fill="none" stroke="black" stroke-dasharray="5,2" d="M569.9,-181C584.28,-181 595.78,-181 595.78,-181 595.78,-181 595.78,-205.76 595.78,-205.76"/>
<polygon fill="black" stroke="black" points="592.28,-205.76 595.78,-215.76 599.28,-205.76 592.28,-205.76"/>
</g>
<!-- PaymentService  -->
<g id="node5" class="node">
<title>PaymentService </title>
<polygon fill="#fb8072" stroke="black" points="569.47,-252 458.53,-252 458.53,-216 569.47,-216 569.47,-252"/>
<text text-anchor="middle" x="514" y="-229.8" font-family="Times,serif" font-size="14.00">PaymentService </text>
</g>
<!-- CommonModule&#45;&gt;PaymentService  -->
<g id="edge4" class="edge">
<title>CommonModule&#45;&gt;PaymentService </title>
<path fill="none" stroke="black" stroke-dasharray="5,2" d="M514,-187.11C514,-187.11 514,-205.99 514,-205.99"/>
<polygon fill="black" stroke="black" points="510.5,-205.99 514,-215.99 517.5,-205.99 510.5,-205.99"/>
</g>
<!-- RedisService  -->
<g id="node6" class="node">
<title>RedisService </title>
<polygon fill="#fb8072" stroke="black" points="440.86,-252 347.14,-252 347.14,-216 440.86,-216 440.86,-252"/>
<text text-anchor="middle" x="394" y="-229.8" font-family="Times,serif" font-size="14.00">RedisService </text>
</g>
<!-- CommonModule&#45;&gt;RedisService  -->
<g id="edge5" class="edge">
<title>CommonModule&#45;&gt;RedisService </title>
<path fill="none" stroke="black" stroke-dasharray="5,2" d="M458.04,-181C443.66,-181 432.14,-181 432.14,-181 432.14,-181 432.14,-205.76 432.14,-205.76"/>
<polygon fill="black" stroke="black" points="428.64,-205.76 432.14,-215.76 435.64,-205.76 428.64,-205.76"/>
</g>
<!-- UsersService  -->
<g id="node7" class="node">
<title>UsersService </title>
<polygon fill="#fb8072" stroke="black" points="329.85,-252 236.15,-252 236.15,-216 329.85,-216 329.85,-252"/>
<text text-anchor="middle" x="283" y="-229.8" font-family="Times,serif" font-size="14.00">UsersService </text>
</g>
<!-- CommonModule&#45;&gt;UsersService  -->
<g id="edge6" class="edge">
<title>CommonModule&#45;&gt;UsersService </title>
<path fill="none" stroke="black" stroke-dasharray="5,2" d="M458.22,-175C396.56,-175 305.84,-175 305.84,-175 305.84,-175 305.84,-205.98 305.84,-205.98"/>
<polygon fill="black" stroke="black" points="302.34,-205.98 305.84,-215.98 309.34,-205.98 302.34,-205.98"/>
</g>
<!-- ConvertUtilsService -->
<g id="node8" class="node">
<title>ConvertUtilsService</title>
<ellipse fill="#fdb462" stroke="black" cx="1062" cy="-104" rx="89.76" ry="18"/>
<text text-anchor="middle" x="1062" y="-99.8" font-family="Times,serif" font-size="14.00">ConvertUtilsService</text>
</g>
<!-- ConvertUtilsService&#45;&gt;CommonModule -->
<g id="edge7" class="edge">
<title>ConvertUtilsService&#45;&gt;CommonModule</title>
<path fill="none" stroke="black" d="M1062,-122.11C1062,-141.34 1062,-169 1062,-169 1062,-169 579.82,-169 579.82,-169"/>
<polygon fill="black" stroke="black" points="579.82,-165.5 569.82,-169 579.82,-172.5 579.82,-165.5"/>
</g>
<!-- EncryptionService -->
<g id="node9" class="node">
<title>EncryptionService</title>
<ellipse fill="#fdb462" stroke="black" cx="871" cy="-104" rx="82.81" ry="18"/>
<text text-anchor="middle" x="871" y="-99.8" font-family="Times,serif" font-size="14.00">EncryptionService</text>
</g>
<!-- EncryptionService&#45;&gt;CommonModule -->
<g id="edge8" class="edge">
<title>EncryptionService&#45;&gt;CommonModule</title>
<path fill="none" stroke="black" d="M825.5,-119.19C825.5,-136.68 825.5,-163 825.5,-163 825.5,-163 579.69,-163 579.69,-163"/>
<polygon fill="black" stroke="black" points="579.69,-159.5 569.69,-163 579.69,-166.5 579.69,-159.5"/>
</g>
<!-- PaymentService -->
<g id="node10" class="node">
<title>PaymentService</title>
<ellipse fill="#fdb462" stroke="black" cx="696" cy="-104" rx="73.57" ry="18"/>
<text text-anchor="middle" x="696" y="-99.8" font-family="Times,serif" font-size="14.00">PaymentService</text>
</g>
<!-- PaymentService&#45;&gt;CommonModule -->
<g id="edge9" class="edge">
<title>PaymentService&#45;&gt;CommonModule</title>
<path fill="none" stroke="black" d="M666.53,-120.77C666.53,-136.3 666.53,-157 666.53,-157 666.53,-157 579.93,-157 579.93,-157"/>
<polygon fill="black" stroke="black" points="579.93,-153.5 569.93,-157 579.93,-160.5 579.93,-153.5"/>
</g>
<!-- QueryHelperService -->
<g id="node11" class="node">
<title>QueryHelperService</title>
<ellipse fill="#fdb462" stroke="black" cx="514" cy="-104" rx="90.29" ry="18"/>
<text text-anchor="middle" x="514" y="-99.8" font-family="Times,serif" font-size="14.00">QueryHelperService</text>
</g>
<!-- QueryHelperService&#45;&gt;CommonModule -->
<g id="edge10" class="edge">
<title>QueryHelperService&#45;&gt;CommonModule</title>
<path fill="none" stroke="black" d="M514,-122.11C514,-122.11 514,-140.99 514,-140.99"/>
<polygon fill="black" stroke="black" points="510.5,-140.99 514,-150.99 517.5,-140.99 510.5,-140.99"/>
</g>
<!-- RedisService -->
<g id="node12" class="node">
<title>RedisService</title>
<ellipse fill="#fdb462" stroke="black" cx="344" cy="-104" rx="61.97" ry="18"/>
<text text-anchor="middle" x="344" y="-99.8" font-family="Times,serif" font-size="14.00">RedisService</text>
</g>
<!-- RedisService&#45;&gt;CommonModule -->
<g id="edge11" class="edge">
<title>RedisService&#45;&gt;CommonModule</title>
<path fill="none" stroke="black" d="M376.65,-119.33C376.65,-134.98 376.65,-157 376.65,-157 376.65,-157 448.14,-157 448.14,-157"/>
<polygon fill="black" stroke="black" points="448.14,-160.5 458.14,-157 448.14,-153.5 448.14,-160.5"/>
</g>
<!-- UsersService -->
<g id="node13" class="node">
<title>UsersService</title>
<ellipse fill="#fdb462" stroke="black" cx="202" cy="-104" rx="61.95" ry="18"/>
<text text-anchor="middle" x="202" y="-99.8" font-family="Times,serif" font-size="14.00">UsersService</text>
</g>
<!-- UsersService&#45;&gt;CommonModule -->
<g id="edge12" class="edge">
<title>UsersService&#45;&gt;CommonModule</title>
<path fill="none" stroke="black" d="M250.15,-115.38C250.15,-132.52 250.15,-163 250.15,-163 250.15,-163 448.04,-163 448.04,-163"/>
<polygon fill="black" stroke="black" points="448.04,-166.5 458.04,-163 448.04,-159.5 448.04,-166.5"/>
</g>
</g>
</svg>
