<?xml version="1.0" encoding="UTF-8" standalone="no"?>
<!DOCTYPE svg PUBLIC "-//W3C//DTD SVG 1.1//EN"
 "http://www.w3.org/Graphics/SVG/1.1/DTD/svg11.dtd">
<!-- Generated by graphviz version 2.47.0 (20210316.0004)
 -->
<!-- Title: dependencies Pages: 1 -->
<svg width="1462pt" height="284pt"
 viewBox="0.00 0.00 1462.00 284.00" xmlns="http://www.w3.org/2000/svg" xmlns:xlink="http://www.w3.org/1999/xlink">
<g id="graph0" class="graph" transform="scale(1 1) rotate(0) translate(4 280)">
<title>dependencies</title>
<polygon fill="white" stroke="transparent" points="-4,4 -4,-280 1458,-280 1458,4 -4,4"/>
<text text-anchor="start" x="706.01" y="-42.4" font-family="Times-12" font-weight="bold" font-size="14.00">Legend</text>
<polygon fill="#ffffb3" stroke="transparent" points="493,-10 493,-30 513,-30 513,-10 493,-10"/>
<text text-anchor="start" x="516.63" y="-15.4" font-family="Times-12" font-size="14.00"> &#160;Declarations</text>
<polygon fill="#8dd3c7" stroke="transparent" points="606,-10 606,-30 626,-30 626,-10 606,-10"/>
<text text-anchor="start" x="629.73" y="-15.4" font-family="Times-12" font-size="14.00"> &#160;Module</text>
<polygon fill="#80b1d3" stroke="transparent" points="692,-10 692,-30 712,-30 712,-10 692,-10"/>
<text text-anchor="start" x="715.78" y="-15.4" font-family="Times-12" font-size="14.00"> &#160;Bootstrap</text>
<polygon fill="#fdb462" stroke="transparent" points="789,-10 789,-30 809,-30 809,-10 789,-10"/>
<text text-anchor="start" x="812.67" y="-15.4" font-family="Times-12" font-size="14.00"> &#160;Providers</text>
<polygon fill="#fb8072" stroke="transparent" points="885,-10 885,-30 905,-30 905,-10 885,-10"/>
<text text-anchor="start" x="908.73" y="-15.4" font-family="Times-12" font-size="14.00"> &#160;Exports</text>
<g id="clust1" class="cluster">
<title>cluster_ReservationsModule</title>
<polygon fill="none" stroke="black" stroke-dasharray="1,5" points="8,-70 8,-268 1446,-268 1446,-70 8,-70"/>
</g>
<g id="clust4" class="cluster">
<title>cluster_ReservationsModule_exports</title>
<polygon fill="none" stroke="black" points="756,-208 756,-260 1112,-260 1112,-208 756,-208"/>
</g>
<g id="clust3" class="cluster">
<title>cluster_ReservationsModule_imports</title>
<polygon fill="none" stroke="black" points="936,-78 936,-130 1438,-130 1438,-78 936,-78"/>
</g>
<g id="clust6" class="cluster">
<title>cluster_ReservationsModule_providers</title>
<polygon fill="none" stroke="black" points="16,-78 16,-130 928,-130 928,-78 16,-78"/>
</g>
<!-- CartItemsModule -->
<g id="node1" class="node">
<title>CartItemsModule</title>
<polygon fill="#8dd3c7" stroke="black" points="1430.25,-122 1427.25,-126 1406.25,-126 1403.25,-122 1315.75,-122 1315.75,-86 1430.25,-86 1430.25,-122"/>
<text text-anchor="middle" x="1373" y="-99.8" font-family="Times,serif" font-size="14.00">CartItemsModule</text>
</g>
<!-- ReservationsModule -->
<g id="node5" class="node">
<title>ReservationsModule</title>
<polygon fill="#8dd3c7" stroke="black" points="985.86,-187 982.86,-191 961.86,-191 958.86,-187 854.14,-187 854.14,-151 985.86,-151 985.86,-187"/>
<text text-anchor="middle" x="920" y="-164.8" font-family="Times,serif" font-size="14.00">ReservationsModule</text>
</g>
<!-- CartItemsModule&#45;&gt;ReservationsModule -->
<g id="edge1" class="edge">
<title>CartItemsModule&#45;&gt;ReservationsModule</title>
<path fill="none" stroke="black" d="M1373,-122.29C1373,-144.21 1373,-178 1373,-178 1373,-178 995.87,-178 995.87,-178"/>
<polygon fill="black" stroke="black" points="995.87,-174.5 985.87,-178 995.87,-181.5 995.87,-174.5"/>
</g>
<!-- CartsModule -->
<g id="node2" class="node">
<title>CartsModule</title>
<polygon fill="#8dd3c7" stroke="black" points="1297.6,-122 1294.6,-126 1273.6,-126 1270.6,-122 1208.4,-122 1208.4,-86 1297.6,-86 1297.6,-122"/>
<text text-anchor="middle" x="1253" y="-99.8" font-family="Times,serif" font-size="14.00">CartsModule</text>
</g>
<!-- CartsModule&#45;&gt;ReservationsModule -->
<g id="edge2" class="edge">
<title>CartsModule&#45;&gt;ReservationsModule</title>
<path fill="none" stroke="black" d="M1253,-122.11C1253,-141.34 1253,-169 1253,-169 1253,-169 996.19,-169 996.19,-169"/>
<polygon fill="black" stroke="black" points="996.19,-165.5 986.19,-169 996.19,-172.5 996.19,-165.5"/>
</g>
<!-- EventsModule -->
<g id="node3" class="node">
<title>EventsModule</title>
<polygon fill="#8dd3c7" stroke="black" points="1190.65,-122 1187.65,-126 1166.65,-126 1163.65,-122 1093.35,-122 1093.35,-86 1190.65,-86 1190.65,-122"/>
<text text-anchor="middle" x="1142" y="-99.8" font-family="Times,serif" font-size="14.00">EventsModule</text>
</g>
<!-- EventsModule&#45;&gt;ReservationsModule -->
<g id="edge3" class="edge">
<title>EventsModule&#45;&gt;ReservationsModule</title>
<path fill="none" stroke="black" d="M1098.64,-122.03C1098.64,-138.4 1098.64,-160 1098.64,-160 1098.64,-160 996.01,-160 996.01,-160"/>
<polygon fill="black" stroke="black" points="996.01,-156.5 986.01,-160 996.01,-163.5 996.01,-156.5"/>
</g>
<!-- TransactionsModule -->
<g id="node4" class="node">
<title>TransactionsModule</title>
<polygon fill="#8dd3c7" stroke="black" points="1075.58,-122 1072.58,-126 1051.58,-126 1048.58,-122 944.42,-122 944.42,-86 1075.58,-86 1075.58,-122"/>
<text text-anchor="middle" x="1010" y="-99.8" font-family="Times,serif" font-size="14.00">TransactionsModule</text>
</g>
<!-- TransactionsModule&#45;&gt;ReservationsModule -->
<g id="edge4" class="edge">
<title>TransactionsModule&#45;&gt;ReservationsModule</title>
<path fill="none" stroke="black" d="M965.2,-122.11C965.2,-122.11 965.2,-140.99 965.2,-140.99"/>
<polygon fill="black" stroke="black" points="961.7,-140.99 965.2,-150.99 968.7,-140.99 961.7,-140.99"/>
</g>
<!-- ReservationsProcessorService  -->
<g id="node6" class="node">
<title>ReservationsProcessorService </title>
<polygon fill="#fb8072" stroke="black" points="1104.21,-252 915.79,-252 915.79,-216 1104.21,-216 1104.21,-252"/>
<text text-anchor="middle" x="1010" y="-229.8" font-family="Times,serif" font-size="14.00">ReservationsProcessorService </text>
</g>
<!-- ReservationsModule&#45;&gt;ReservationsProcessorService  -->
<g id="edge5" class="edge">
<title>ReservationsModule&#45;&gt;ReservationsProcessorService </title>
<path fill="none" stroke="black" stroke-dasharray="5,2" d="M950.91,-187.11C950.91,-187.11 950.91,-205.99 950.91,-205.99"/>
<polygon fill="black" stroke="black" points="947.41,-205.99 950.91,-215.99 954.41,-205.99 947.41,-205.99"/>
</g>
<!-- ReservationsService  -->
<g id="node7" class="node">
<title>ReservationsService </title>
<polygon fill="#fb8072" stroke="black" points="897.79,-252 764.21,-252 764.21,-216 897.79,-216 897.79,-252"/>
<text text-anchor="middle" x="831" y="-229.8" font-family="Times,serif" font-size="14.00">ReservationsService </text>
</g>
<!-- ReservationsModule&#45;&gt;ReservationsService  -->
<g id="edge6" class="edge">
<title>ReservationsModule&#45;&gt;ReservationsService </title>
<path fill="none" stroke="black" stroke-dasharray="5,2" d="M875.98,-187.11C875.98,-187.11 875.98,-205.99 875.98,-205.99"/>
<polygon fill="black" stroke="black" points="872.48,-205.99 875.98,-215.99 879.48,-205.99 872.48,-205.99"/>
</g>
<!-- QueryHelperService -->
<g id="node8" class="node">
<title>QueryHelperService</title>
<ellipse fill="#fdb462" stroke="black" cx="830" cy="-104" rx="90.29" ry="18"/>
<text text-anchor="middle" x="830" y="-99.8" font-family="Times,serif" font-size="14.00">QueryHelperService</text>
</g>
<!-- QueryHelperService&#45;&gt;ReservationsModule -->
<g id="edge7" class="edge">
<title>QueryHelperService&#45;&gt;ReservationsModule</title>
<path fill="none" stroke="black" d="M887.23,-118.1C887.23,-118.1 887.23,-140.72 887.23,-140.72"/>
<polygon fill="black" stroke="black" points="883.73,-140.72 887.23,-150.72 890.73,-140.72 883.73,-140.72"/>
</g>
<!-- ReservationDetailsService -->
<g id="node9" class="node">
<title>ReservationDetailsService</title>
<ellipse fill="#fdb462" stroke="black" cx="608" cy="-104" rx="113.43" ry="18"/>
<text text-anchor="middle" x="608" y="-99.8" font-family="Times,serif" font-size="14.00">ReservationDetailsService</text>
</g>
<!-- ReservationDetailsService&#45;&gt;ReservationsModule -->
<g id="edge8" class="edge">
<title>ReservationDetailsService&#45;&gt;ReservationsModule</title>
<path fill="none" stroke="black" d="M608,-122.03C608,-138.4 608,-160 608,-160 608,-160 843.83,-160 843.83,-160"/>
<polygon fill="black" stroke="black" points="843.83,-163.5 853.83,-160 843.83,-156.5 843.83,-163.5"/>
</g>
<!-- ReservationsProcessorService -->
<g id="node10" class="node">
<title>ReservationsProcessorService</title>
<ellipse fill="#fdb462" stroke="black" cx="349" cy="-104" rx="127.32" ry="18"/>
<text text-anchor="middle" x="349" y="-99.8" font-family="Times,serif" font-size="14.00">ReservationsProcessorService</text>
</g>
<!-- ReservationsProcessorService&#45;&gt;ReservationsModule -->
<g id="edge9" class="edge">
<title>ReservationsProcessorService&#45;&gt;ReservationsModule</title>
<path fill="none" stroke="black" d="M349,-122.11C349,-141.34 349,-169 349,-169 349,-169 843.94,-169 843.94,-169"/>
<polygon fill="black" stroke="black" points="843.94,-172.5 853.94,-169 843.94,-165.5 843.94,-172.5"/>
</g>
<!-- ReservationsService -->
<g id="node11" class="node">
<title>ReservationsService</title>
<ellipse fill="#fdb462" stroke="black" cx="114" cy="-104" rx="89.74" ry="18"/>
<text text-anchor="middle" x="114" y="-99.8" font-family="Times,serif" font-size="14.00">ReservationsService</text>
</g>
<!-- ReservationsService&#45;&gt;ReservationsModule -->
<g id="edge10" class="edge">
<title>ReservationsService&#45;&gt;ReservationsModule</title>
<path fill="none" stroke="black" d="M114,-122.29C114,-144.21 114,-178 114,-178 114,-178 844.04,-178 844.04,-178"/>
<polygon fill="black" stroke="black" points="844.04,-181.5 854.04,-178 844.04,-174.5 844.04,-181.5"/>
</g>
</g>
</svg>
