<?xml version="1.0" encoding="UTF-8" standalone="no"?>
<!DOCTYPE svg PUBLIC "-//W3C//DTD SVG 1.1//EN"
 "http://www.w3.org/Graphics/SVG/1.1/DTD/svg11.dtd">
<!-- Generated by graphviz version 2.47.0 (20210316.0004)
 -->
<!-- Title: dependencies Pages: 1 -->
<svg width="1462pt" height="284pt"
 viewBox="0.00 0.00 1462.00 284.00" xmlns="http://www.w3.org/2000/svg" xmlns:xlink="http://www.w3.org/1999/xlink">
<g id="graph0" class="graph" transform="scale(1 1) rotate(0) translate(4 280)">
<title>dependencies</title>
<polygon fill="white" stroke="transparent" points="-4,4 -4,-280 1458,-280 1458,4 -4,4"/>
<text text-anchor="start" x="706.01" y="-42.4" font-family="Times-12" font-weight="bold" font-size="14.00">Legend</text>
<polygon fill="#ffffb3" stroke="transparent" points="493,-10 493,-30 513,-30 513,-10 493,-10"/>
<text text-anchor="start" x="516.63" y="-15.4" font-family="Times-12" font-size="14.00"> &#160;Declarations</text>
<polygon fill="#8dd3c7" stroke="transparent" points="606,-10 606,-30 626,-30 626,-10 606,-10"/>
<text text-anchor="start" x="629.73" y="-15.4" font-family="Times-12" font-size="14.00"> &#160;Module</text>
<polygon fill="#80b1d3" stroke="transparent" points="692,-10 692,-30 712,-30 712,-10 692,-10"/>
<text text-anchor="start" x="715.78" y="-15.4" font-family="Times-12" font-size="14.00"> &#160;Bootstrap</text>
<polygon fill="#fdb462" stroke="transparent" points="789,-10 789,-30 809,-30 809,-10 789,-10"/>
<text text-anchor="start" x="812.67" y="-15.4" font-family="Times-12" font-size="14.00"> &#160;Providers</text>
<polygon fill="#fb8072" stroke="transparent" points="885,-10 885,-30 905,-30 905,-10 885,-10"/>
<text text-anchor="start" x="908.73" y="-15.4" font-family="Times-12" font-size="14.00"> &#160;Exports</text>
<g id="clust1" class="cluster">
<title>cluster_ReservationsModule</title>
<polygon fill="none" stroke="black" stroke-dasharray="1,5" points="8,-70 8,-268 1446,-268 1446,-70 8,-70"/>
</g>
<g id="clust6" class="cluster">
<title>cluster_ReservationsModule_providers</title>
<polygon fill="none" stroke="black" points="526,-78 526,-130 1438,-130 1438,-78 526,-78"/>
</g>
<g id="clust4" class="cluster">
<title>cluster_ReservationsModule_exports</title>
<polygon fill="none" stroke="black" points="374,-208 374,-260 730,-260 730,-208 374,-208"/>
</g>
<g id="clust3" class="cluster">
<title>cluster_ReservationsModule_imports</title>
<polygon fill="none" stroke="black" points="16,-78 16,-130 518,-130 518,-78 16,-78"/>
</g>
<!-- CartItemsModule -->
<g id="node1" class="node">
<title>CartItemsModule</title>
<polygon fill="#8dd3c7" stroke="black" points="510.25,-122 507.25,-126 486.25,-126 483.25,-122 395.75,-122 395.75,-86 510.25,-86 510.25,-122"/>
<text text-anchor="middle" x="453" y="-99.8" font-family="Times,serif" font-size="14.00">CartItemsModule</text>
</g>
<!-- ReservationsModule -->
<g id="node5" class="node">
<title>ReservationsModule</title>
<polygon fill="#8dd3c7" stroke="black" points="603.86,-187 600.86,-191 579.86,-191 576.86,-187 472.14,-187 472.14,-151 603.86,-151 603.86,-187"/>
<text text-anchor="middle" x="538" y="-164.8" font-family="Times,serif" font-size="14.00">ReservationsModule</text>
</g>
<!-- CartItemsModule&#45;&gt;ReservationsModule -->
<g id="edge1" class="edge">
<title>CartItemsModule&#45;&gt;ReservationsModule</title>
<path fill="none" stroke="black" d="M491.22,-122.11C491.22,-122.11 491.22,-140.99 491.22,-140.99"/>
<polygon fill="black" stroke="black" points="487.72,-140.99 491.22,-150.99 494.72,-140.99 487.72,-140.99"/>
</g>
<!-- CartsModule -->
<g id="node2" class="node">
<title>CartsModule</title>
<polygon fill="#8dd3c7" stroke="black" points="377.6,-122 374.6,-126 353.6,-126 350.6,-122 288.4,-122 288.4,-86 377.6,-86 377.6,-122"/>
<text text-anchor="middle" x="333" y="-99.8" font-family="Times,serif" font-size="14.00">CartsModule</text>
</g>
<!-- CartsModule&#45;&gt;ReservationsModule -->
<g id="edge2" class="edge">
<title>CartsModule&#45;&gt;ReservationsModule</title>
<path fill="none" stroke="black" d="M333,-122.03C333,-138.4 333,-160 333,-160 333,-160 462.01,-160 462.01,-160"/>
<polygon fill="black" stroke="black" points="462.01,-163.5 472.01,-160 462.01,-156.5 462.01,-163.5"/>
</g>
<!-- EventsModule -->
<g id="node3" class="node">
<title>EventsModule</title>
<polygon fill="#8dd3c7" stroke="black" points="270.65,-122 267.65,-126 246.65,-126 243.65,-122 173.35,-122 173.35,-86 270.65,-86 270.65,-122"/>
<text text-anchor="middle" x="222" y="-99.8" font-family="Times,serif" font-size="14.00">EventsModule</text>
</g>
<!-- EventsModule&#45;&gt;ReservationsModule -->
<g id="edge3" class="edge">
<title>EventsModule&#45;&gt;ReservationsModule</title>
<path fill="none" stroke="black" d="M222,-122.11C222,-141.34 222,-169 222,-169 222,-169 461.76,-169 461.76,-169"/>
<polygon fill="black" stroke="black" points="461.76,-172.5 471.76,-169 461.76,-165.5 461.76,-172.5"/>
</g>
<!-- TransactionsModule -->
<g id="node4" class="node">
<title>TransactionsModule</title>
<polygon fill="#8dd3c7" stroke="black" points="155.58,-122 152.58,-126 131.58,-126 128.58,-122 24.42,-122 24.42,-86 155.58,-86 155.58,-122"/>
<text text-anchor="middle" x="90" y="-99.8" font-family="Times,serif" font-size="14.00">TransactionsModule</text>
</g>
<!-- TransactionsModule&#45;&gt;ReservationsModule -->
<g id="edge4" class="edge">
<title>TransactionsModule&#45;&gt;ReservationsModule</title>
<path fill="none" stroke="black" d="M90,-122.29C90,-144.21 90,-178 90,-178 90,-178 461.9,-178 461.9,-178"/>
<polygon fill="black" stroke="black" points="461.9,-181.5 471.9,-178 461.9,-174.5 461.9,-181.5"/>
</g>
<!-- ReservationsProcessorService  -->
<g id="node6" class="node">
<title>ReservationsProcessorService </title>
<polygon fill="#fb8072" stroke="black" points="722.21,-252 533.79,-252 533.79,-216 722.21,-216 722.21,-252"/>
<text text-anchor="middle" x="628" y="-229.8" font-family="Times,serif" font-size="14.00">ReservationsProcessorService </text>
</g>
<!-- ReservationsModule&#45;&gt;ReservationsProcessorService  -->
<g id="edge5" class="edge">
<title>ReservationsModule&#45;&gt;ReservationsProcessorService </title>
<path fill="none" stroke="black" stroke-dasharray="5,2" d="M568.91,-187.11C568.91,-187.11 568.91,-205.99 568.91,-205.99"/>
<polygon fill="black" stroke="black" points="565.41,-205.99 568.91,-215.99 572.41,-205.99 565.41,-205.99"/>
</g>
<!-- ReservationsService  -->
<g id="node7" class="node">
<title>ReservationsService </title>
<polygon fill="#fb8072" stroke="black" points="515.79,-252 382.21,-252 382.21,-216 515.79,-216 515.79,-252"/>
<text text-anchor="middle" x="449" y="-229.8" font-family="Times,serif" font-size="14.00">ReservationsService </text>
</g>
<!-- ReservationsModule&#45;&gt;ReservationsService  -->
<g id="edge6" class="edge">
<title>ReservationsModule&#45;&gt;ReservationsService </title>
<path fill="none" stroke="black" stroke-dasharray="5,2" d="M493.98,-187.11C493.98,-187.11 493.98,-205.99 493.98,-205.99"/>
<polygon fill="black" stroke="black" points="490.48,-205.99 493.98,-215.99 497.48,-205.99 490.48,-205.99"/>
</g>
<!-- QueryHelperService -->
<g id="node8" class="node">
<title>QueryHelperService</title>
<ellipse fill="#fdb462" stroke="black" cx="1340" cy="-104" rx="90.29" ry="18"/>
<text text-anchor="middle" x="1340" y="-99.8" font-family="Times,serif" font-size="14.00">QueryHelperService</text>
</g>
<!-- QueryHelperService&#45;&gt;ReservationsModule -->
<g id="edge7" class="edge">
<title>QueryHelperService&#45;&gt;ReservationsModule</title>
<path fill="none" stroke="black" d="M1340,-122.29C1340,-144.21 1340,-178 1340,-178 1340,-178 613.97,-178 613.97,-178"/>
<polygon fill="black" stroke="black" points="613.97,-174.5 603.97,-178 613.97,-181.5 613.97,-174.5"/>
</g>
<!-- ReservationDetailsService -->
<g id="node9" class="node">
<title>ReservationDetailsService</title>
<ellipse fill="#fdb462" stroke="black" cx="1118" cy="-104" rx="113.43" ry="18"/>
<text text-anchor="middle" x="1118" y="-99.8" font-family="Times,serif" font-size="14.00">ReservationDetailsService</text>
</g>
<!-- ReservationDetailsService&#45;&gt;ReservationsModule -->
<g id="edge8" class="edge">
<title>ReservationDetailsService&#45;&gt;ReservationsModule</title>
<path fill="none" stroke="black" d="M1118,-122.11C1118,-141.34 1118,-169 1118,-169 1118,-169 613.97,-169 613.97,-169"/>
<polygon fill="black" stroke="black" points="613.97,-165.5 603.97,-169 613.97,-172.5 613.97,-165.5"/>
</g>
<!-- ReservationsProcessorService -->
<g id="node10" class="node">
<title>ReservationsProcessorService</title>
<ellipse fill="#fdb462" stroke="black" cx="859" cy="-104" rx="127.32" ry="18"/>
<text text-anchor="middle" x="859" y="-99.8" font-family="Times,serif" font-size="14.00">ReservationsProcessorService</text>
</g>
<!-- ReservationsProcessorService&#45;&gt;ReservationsModule -->
<g id="edge9" class="edge">
<title>ReservationsProcessorService&#45;&gt;ReservationsModule</title>
<path fill="none" stroke="black" d="M859,-122.03C859,-138.4 859,-160 859,-160 859,-160 614.12,-160 614.12,-160"/>
<polygon fill="black" stroke="black" points="614.12,-156.5 604.12,-160 614.12,-163.5 614.12,-156.5"/>
</g>
<!-- ReservationsService -->
<g id="node11" class="node">
<title>ReservationsService</title>
<ellipse fill="#fdb462" stroke="black" cx="624" cy="-104" rx="89.74" ry="18"/>
<text text-anchor="middle" x="624" y="-99.8" font-family="Times,serif" font-size="14.00">ReservationsService</text>
</g>
<!-- ReservationsService&#45;&gt;ReservationsModule -->
<g id="edge10" class="edge">
<title>ReservationsService&#45;&gt;ReservationsModule</title>
<path fill="none" stroke="black" d="M569.03,-118.43C569.03,-118.43 569.03,-140.89 569.03,-140.89"/>
<polygon fill="black" stroke="black" points="565.53,-140.89 569.03,-150.89 572.53,-140.89 565.53,-140.89"/>
</g>
</g>
</svg>
