<?xml version="1.0" encoding="UTF-8" standalone="no"?>
<!DOCTYPE svg PUBLIC "-//W3C//DTD SVG 1.1//EN"
 "http://www.w3.org/Graphics/SVG/1.1/DTD/svg11.dtd">
<!-- Generated by graphviz version 2.47.0 (20210316.0004)
 -->
<!-- Title: dependencies Pages: 1 -->
<svg width="628pt" height="284pt"
 viewBox="0.00 0.00 628.00 284.00" xmlns="http://www.w3.org/2000/svg" xmlns:xlink="http://www.w3.org/1999/xlink">
<g id="graph0" class="graph" transform="scale(1 1) rotate(0) translate(4 280)">
<title>dependencies</title>
<polygon fill="white" stroke="transparent" points="-4,4 -4,-280 624,-280 624,4 -4,4"/>
<text text-anchor="start" x="289.01" y="-42.4" font-family="Times-12" font-weight="bold" font-size="14.00">Legend</text>
<polygon fill="#ffffb3" stroke="transparent" points="76,-10 76,-30 96,-30 96,-10 76,-10"/>
<text text-anchor="start" x="99.63" y="-15.4" font-family="Times-12" font-size="14.00"> &#160;Declarations</text>
<polygon fill="#8dd3c7" stroke="transparent" points="189,-10 189,-30 209,-30 209,-10 189,-10"/>
<text text-anchor="start" x="212.73" y="-15.4" font-family="Times-12" font-size="14.00"> &#160;Module</text>
<polygon fill="#80b1d3" stroke="transparent" points="275,-10 275,-30 295,-30 295,-10 275,-10"/>
<text text-anchor="start" x="298.78" y="-15.4" font-family="Times-12" font-size="14.00"> &#160;Bootstrap</text>
<polygon fill="#fdb462" stroke="transparent" points="372,-10 372,-30 392,-30 392,-10 372,-10"/>
<text text-anchor="start" x="395.67" y="-15.4" font-family="Times-12" font-size="14.00"> &#160;Providers</text>
<polygon fill="#fb8072" stroke="transparent" points="468,-10 468,-30 488,-30 488,-10 468,-10"/>
<text text-anchor="start" x="491.73" y="-15.4" font-family="Times-12" font-size="14.00"> &#160;Exports</text>
<g id="clust1" class="cluster">
<title>cluster_PaymentModule</title>
<polygon fill="none" stroke="black" stroke-dasharray="1,5" points="8,-70 8,-268 612,-268 612,-70 8,-70"/>
</g>
<g id="clust4" class="cluster">
<title>cluster_PaymentModule_exports</title>
<polygon fill="none" stroke="black" points="266,-208 266,-260 392,-260 392,-208 266,-208"/>
</g>
<g id="clust3" class="cluster">
<title>cluster_PaymentModule_imports</title>
<polygon fill="none" stroke="black" points="188,-78 188,-130 604,-130 604,-78 188,-78"/>
</g>
<g id="clust6" class="cluster">
<title>cluster_PaymentModule_providers</title>
<polygon fill="none" stroke="black" points="16,-78 16,-130 180,-130 180,-78 16,-78"/>
</g>
<!-- ReservationsModule -->
<g id="node1" class="node">
<title>ReservationsModule</title>
<polygon fill="#8dd3c7" stroke="black" points="595.86,-122 592.86,-126 571.86,-126 568.86,-122 464.14,-122 464.14,-86 595.86,-86 595.86,-122"/>
<text text-anchor="middle" x="530" y="-99.8" font-family="Times,serif" font-size="14.00">ReservationsModule</text>
</g>
<!-- PaymentModule -->
<g id="node4" class="node">
<title>PaymentModule</title>
<polygon fill="#8dd3c7" stroke="black" points="383.04,-187 380.04,-191 359.04,-191 356.04,-187 274.96,-187 274.96,-151 383.04,-151 383.04,-187"/>
<text text-anchor="middle" x="329" y="-164.8" font-family="Times,serif" font-size="14.00">PaymentModule</text>
</g>
<!-- ReservationsModule&#45;&gt;PaymentModule -->
<g id="edge1" class="edge">
<title>ReservationsModule&#45;&gt;PaymentModule</title>
<path fill="none" stroke="black" d="M530,-122.11C530,-141.34 530,-169 530,-169 530,-169 393.13,-169 393.13,-169"/>
<polygon fill="black" stroke="black" points="393.13,-165.5 383.13,-169 393.13,-172.5 393.13,-165.5"/>
</g>
<!-- TicketsModule -->
<g id="node2" class="node">
<title>TicketsModule</title>
<polygon fill="#8dd3c7" stroke="black" points="446.26,-122 443.26,-126 422.26,-126 419.26,-122 345.74,-122 345.74,-86 446.26,-86 446.26,-122"/>
<text text-anchor="middle" x="396" y="-99.8" font-family="Times,serif" font-size="14.00">TicketsModule</text>
</g>
<!-- TicketsModule&#45;&gt;PaymentModule -->
<g id="edge2" class="edge">
<title>TicketsModule&#45;&gt;PaymentModule</title>
<path fill="none" stroke="black" d="M364.45,-122.11C364.45,-122.11 364.45,-140.99 364.45,-140.99"/>
<polygon fill="black" stroke="black" points="360.95,-140.99 364.45,-150.99 367.95,-140.99 360.95,-140.99"/>
</g>
<!-- TransactionsModule -->
<g id="node3" class="node">
<title>TransactionsModule</title>
<polygon fill="#8dd3c7" stroke="black" points="327.58,-122 324.58,-126 303.58,-126 300.58,-122 196.42,-122 196.42,-86 327.58,-86 327.58,-122"/>
<text text-anchor="middle" x="262" y="-99.8" font-family="Times,serif" font-size="14.00">TransactionsModule</text>
</g>
<!-- TransactionsModule&#45;&gt;PaymentModule -->
<g id="edge3" class="edge">
<title>TransactionsModule&#45;&gt;PaymentModule</title>
<path fill="none" stroke="black" d="M301.13,-122.11C301.13,-122.11 301.13,-140.99 301.13,-140.99"/>
<polygon fill="black" stroke="black" points="297.63,-140.99 301.13,-150.99 304.63,-140.99 297.63,-140.99"/>
</g>
<!-- PaymentService  -->
<g id="node5" class="node">
<title>PaymentService </title>
<polygon fill="#fb8072" stroke="black" points="384.47,-252 273.53,-252 273.53,-216 384.47,-216 384.47,-252"/>
<text text-anchor="middle" x="329" y="-229.8" font-family="Times,serif" font-size="14.00">PaymentService </text>
</g>
<!-- PaymentModule&#45;&gt;PaymentService  -->
<g id="edge4" class="edge">
<title>PaymentModule&#45;&gt;PaymentService </title>
<path fill="none" stroke="black" stroke-dasharray="5,2" d="M329,-187.11C329,-187.11 329,-205.99 329,-205.99"/>
<polygon fill="black" stroke="black" points="325.5,-205.99 329,-215.99 332.5,-205.99 325.5,-205.99"/>
</g>
<!-- PaymentService -->
<g id="node6" class="node">
<title>PaymentService</title>
<ellipse fill="#fdb462" stroke="black" cx="98" cy="-104" rx="73.57" ry="18"/>
<text text-anchor="middle" x="98" y="-99.8" font-family="Times,serif" font-size="14.00">PaymentService</text>
</g>
<!-- PaymentService&#45;&gt;PaymentModule -->
<g id="edge5" class="edge">
<title>PaymentService&#45;&gt;PaymentModule</title>
<path fill="none" stroke="black" d="M98,-122.11C98,-141.34 98,-169 98,-169 98,-169 264.84,-169 264.84,-169"/>
<polygon fill="black" stroke="black" points="264.84,-172.5 274.84,-169 264.84,-165.5 264.84,-172.5"/>
</g>
</g>
</svg>
