<?xml version="1.0" encoding="UTF-8" standalone="no"?>
<!DOCTYPE svg PUBLIC "-//W3C//DTD SVG 1.1//EN"
 "http://www.w3.org/Graphics/SVG/1.1/DTD/svg11.dtd">
<!-- Generated by graphviz version 2.47.0 (20210316.0004)
 -->
<!-- Title: dependencies Pages: 1 -->
<svg width="1215pt" height="211pt"
 viewBox="0.00 0.00 1215.00 211.00" xmlns="http://www.w3.org/2000/svg" xmlns:xlink="http://www.w3.org/1999/xlink">
<g id="graph0" class="graph" transform="scale(1 1) rotate(0) translate(4 207)">
<title>dependencies</title>
<polygon fill="white" stroke="transparent" points="-4,4 -4,-207 1211,-207 1211,4 -4,4"/>
<text text-anchor="start" x="582.51" y="-42.4" font-family="Times-12" font-weight="bold" font-size="14.00">Legend</text>
<polygon fill="#ffffb3" stroke="transparent" points="369.5,-10 369.5,-30 389.5,-30 389.5,-10 369.5,-10"/>
<text text-anchor="start" x="393.13" y="-15.4" font-family="Times-12" font-size="14.00"> &#160;Declarations</text>
<polygon fill="#8dd3c7" stroke="transparent" points="482.5,-10 482.5,-30 502.5,-30 502.5,-10 482.5,-10"/>
<text text-anchor="start" x="506.23" y="-15.4" font-family="Times-12" font-size="14.00"> &#160;Module</text>
<polygon fill="#80b1d3" stroke="transparent" points="568.5,-10 568.5,-30 588.5,-30 588.5,-10 568.5,-10"/>
<text text-anchor="start" x="592.28" y="-15.4" font-family="Times-12" font-size="14.00"> &#160;Bootstrap</text>
<polygon fill="#fdb462" stroke="transparent" points="665.5,-10 665.5,-30 685.5,-30 685.5,-10 665.5,-10"/>
<text text-anchor="start" x="689.17" y="-15.4" font-family="Times-12" font-size="14.00"> &#160;Providers</text>
<polygon fill="#fb8072" stroke="transparent" points="761.5,-10 761.5,-30 781.5,-30 781.5,-10 761.5,-10"/>
<text text-anchor="start" x="785.23" y="-15.4" font-family="Times-12" font-size="14.00"> &#160;Exports</text>
<g id="clust1" class="cluster">
<title>cluster_AuthModule</title>
<polygon fill="none" stroke="black" stroke-dasharray="1,5" points="8,-70 8,-195 1199,-195 1199,-70 8,-70"/>
</g>
<g id="clust3" class="cluster">
<title>cluster_AuthModule_imports</title>
<polygon fill="none" stroke="black" points="956,-78 956,-130 1191,-130 1191,-78 956,-78"/>
</g>
<g id="clust6" class="cluster">
<title>cluster_AuthModule_providers</title>
<polygon fill="none" stroke="black" points="16,-78 16,-130 948,-130 948,-78 16,-78"/>
</g>
<!-- CartsModule -->
<g id="node1" class="node">
<title>CartsModule</title>
<polygon fill="#8dd3c7" stroke="black" points="1182.6,-122 1179.6,-126 1158.6,-126 1155.6,-122 1093.4,-122 1093.4,-86 1182.6,-86 1182.6,-122"/>
<text text-anchor="middle" x="1138" y="-99.8" font-family="Times,serif" font-size="14.00">CartsModule</text>
</g>
<!-- AuthModule -->
<g id="node3" class="node">
<title>AuthModule</title>
<polygon fill="#8dd3c7" stroke="black" points="779.55,-187 776.55,-191 755.55,-191 752.55,-187 692.45,-187 692.45,-151 779.55,-151 779.55,-187"/>
<text text-anchor="middle" x="736" y="-164.8" font-family="Times,serif" font-size="14.00">AuthModule</text>
</g>
<!-- CartsModule&#45;&gt;AuthModule -->
<g id="edge1" class="edge">
<title>CartsModule&#45;&gt;AuthModule</title>
<path fill="none" stroke="black" d="M1138,-122.29C1138,-144.21 1138,-178 1138,-178 1138,-178 789.79,-178 789.79,-178"/>
<polygon fill="black" stroke="black" points="789.79,-174.5 779.79,-178 789.79,-181.5 789.79,-174.5"/>
</g>
<!-- CommonModule -->
<g id="node2" class="node">
<title>CommonModule</title>
<polygon fill="#8dd3c7" stroke="black" points="1075.67,-122 1072.67,-126 1051.67,-126 1048.67,-122 964.33,-122 964.33,-86 1075.67,-86 1075.67,-122"/>
<text text-anchor="middle" x="1020" y="-99.8" font-family="Times,serif" font-size="14.00">CommonModule</text>
</g>
<!-- CommonModule&#45;&gt;AuthModule -->
<g id="edge2" class="edge">
<title>CommonModule&#45;&gt;AuthModule</title>
<path fill="none" stroke="black" d="M1020,-122.11C1020,-141.34 1020,-169 1020,-169 1020,-169 789.75,-169 789.75,-169"/>
<polygon fill="black" stroke="black" points="789.75,-165.5 779.75,-169 789.75,-172.5 789.75,-165.5"/>
</g>
<!-- AuthService -->
<g id="node4" class="node">
<title>AuthService</title>
<ellipse fill="#fdb462" stroke="black" cx="881" cy="-104" rx="59.11" ry="18"/>
<text text-anchor="middle" x="881" y="-99.8" font-family="Times,serif" font-size="14.00">AuthService</text>
</g>
<!-- AuthService&#45;&gt;AuthModule -->
<g id="edge3" class="edge">
<title>AuthService&#45;&gt;AuthModule</title>
<path fill="none" stroke="black" d="M881,-122.03C881,-138.4 881,-160 881,-160 881,-160 789.9,-160 789.9,-160"/>
<polygon fill="black" stroke="black" points="789.9,-156.5 779.9,-160 789.9,-163.5 789.9,-156.5"/>
</g>
<!-- CookieService -->
<g id="node5" class="node">
<title>CookieService</title>
<ellipse fill="#fdb462" stroke="black" cx="736" cy="-104" rx="67.78" ry="18"/>
<text text-anchor="middle" x="736" y="-99.8" font-family="Times,serif" font-size="14.00">CookieService</text>
</g>
<!-- CookieService&#45;&gt;AuthModule -->
<g id="edge4" class="edge">
<title>CookieService&#45;&gt;AuthModule</title>
<path fill="none" stroke="black" d="M736,-122.11C736,-122.11 736,-140.99 736,-140.99"/>
<polygon fill="black" stroke="black" points="732.5,-140.99 736,-150.99 739.5,-140.99 732.5,-140.99"/>
</g>
<!-- RefreshTokenStoreService -->
<g id="node6" class="node">
<title>RefreshTokenStoreService</title>
<ellipse fill="#fdb462" stroke="black" cx="535" cy="-104" rx="115.15" ry="18"/>
<text text-anchor="middle" x="535" y="-99.8" font-family="Times,serif" font-size="14.00">RefreshTokenStoreService</text>
</g>
<!-- RefreshTokenStoreService&#45;&gt;AuthModule -->
<g id="edge5" class="edge">
<title>RefreshTokenStoreService&#45;&gt;AuthModule</title>
<path fill="none" stroke="black" d="M535,-122.03C535,-138.4 535,-160 535,-160 535,-160 682.39,-160 682.39,-160"/>
<polygon fill="black" stroke="black" points="682.39,-163.5 692.39,-160 682.39,-156.5 682.39,-163.5"/>
</g>
<!-- TokenManagementService -->
<g id="node7" class="node">
<title>TokenManagementService</title>
<ellipse fill="#fdb462" stroke="black" cx="287" cy="-104" rx="115.15" ry="18"/>
<text text-anchor="middle" x="287" y="-99.8" font-family="Times,serif" font-size="14.00">TokenManagementService</text>
</g>
<!-- TokenManagementService&#45;&gt;AuthModule -->
<g id="edge6" class="edge">
<title>TokenManagementService&#45;&gt;AuthModule</title>
<path fill="none" stroke="black" d="M287,-122.11C287,-141.34 287,-169 287,-169 287,-169 682.13,-169 682.13,-169"/>
<polygon fill="black" stroke="black" points="682.13,-172.5 692.13,-169 682.13,-165.5 682.13,-172.5"/>
</g>
<!-- TokenService -->
<g id="node8" class="node">
<title>TokenService</title>
<ellipse fill="#fdb462" stroke="black" cx="89" cy="-104" rx="64.83" ry="18"/>
<text text-anchor="middle" x="89" y="-99.8" font-family="Times,serif" font-size="14.00">TokenService</text>
</g>
<!-- TokenService&#45;&gt;AuthModule -->
<g id="edge7" class="edge">
<title>TokenService&#45;&gt;AuthModule</title>
<path fill="none" stroke="black" d="M89,-122.29C89,-144.21 89,-178 89,-178 89,-178 682.29,-178 682.29,-178"/>
<polygon fill="black" stroke="black" points="682.29,-181.5 692.29,-178 682.29,-174.5 682.29,-181.5"/>
</g>
</g>
</svg>
