<?xml version="1.0" encoding="UTF-8" standalone="no"?>
<!DOCTYPE svg PUBLIC "-//W3C//DTD SVG 1.1//EN"
 "http://www.w3.org/Graphics/SVG/1.1/DTD/svg11.dtd">
<!-- Generated by graphviz version 2.47.0 (20210316.0004)
 -->
<!-- Title: dependencies Pages: 1 -->
<svg width="761pt" height="284pt"
 viewBox="0.00 0.00 761.00 284.00" xmlns="http://www.w3.org/2000/svg" xmlns:xlink="http://www.w3.org/1999/xlink">
<g id="graph0" class="graph" transform="scale(1 1) rotate(0) translate(4 280)">
<title>dependencies</title>
<polygon fill="white" stroke="transparent" points="-4,4 -4,-280 757,-280 757,4 -4,4"/>
<text text-anchor="start" x="355.51" y="-42.4" font-family="Times-12" font-weight="bold" font-size="14.00">Legend</text>
<polygon fill="#ffffb3" stroke="transparent" points="142.5,-10 142.5,-30 162.5,-30 162.5,-10 142.5,-10"/>
<text text-anchor="start" x="166.13" y="-15.4" font-family="Times-12" font-size="14.00"> &#160;Declarations</text>
<polygon fill="#8dd3c7" stroke="transparent" points="255.5,-10 255.5,-30 275.5,-30 275.5,-10 255.5,-10"/>
<text text-anchor="start" x="279.23" y="-15.4" font-family="Times-12" font-size="14.00"> &#160;Module</text>
<polygon fill="#80b1d3" stroke="transparent" points="341.5,-10 341.5,-30 361.5,-30 361.5,-10 341.5,-10"/>
<text text-anchor="start" x="365.28" y="-15.4" font-family="Times-12" font-size="14.00"> &#160;Bootstrap</text>
<polygon fill="#fdb462" stroke="transparent" points="438.5,-10 438.5,-30 458.5,-30 458.5,-10 438.5,-10"/>
<text text-anchor="start" x="462.17" y="-15.4" font-family="Times-12" font-size="14.00"> &#160;Providers</text>
<polygon fill="#fb8072" stroke="transparent" points="534.5,-10 534.5,-30 554.5,-30 554.5,-10 534.5,-10"/>
<text text-anchor="start" x="558.23" y="-15.4" font-family="Times-12" font-size="14.00"> &#160;Exports</text>
<g id="clust1" class="cluster">
<title>cluster_EventsModule</title>
<polygon fill="none" stroke="black" stroke-dasharray="1,5" points="8,-70 8,-268 745,-268 745,-70 8,-70"/>
</g>
<g id="clust6" class="cluster">
<title>cluster_EventsModule_providers</title>
<polygon fill="none" stroke="black" points="16,-78 16,-130 737,-130 737,-78 16,-78"/>
</g>
<g id="clust4" class="cluster">
<title>cluster_EventsModule_exports</title>
<polygon fill="none" stroke="black" points="184,-208 184,-260 588,-260 588,-208 184,-208"/>
</g>
<!-- EventPricesService  -->
<g id="node1" class="node">
<title>EventPricesService </title>
<polygon fill="#fb8072" stroke="black" points="580.34,-252 451.66,-252 451.66,-216 580.34,-216 580.34,-252"/>
<text text-anchor="middle" x="516" y="-229.8" font-family="Times,serif" font-size="14.00">EventPricesService </text>
</g>
<!-- EventSalesService  -->
<g id="node2" class="node">
<title>EventSalesService </title>
<polygon fill="#fb8072" stroke="black" points="433.68,-252 310.32,-252 310.32,-216 433.68,-216 433.68,-252"/>
<text text-anchor="middle" x="372" y="-229.8" font-family="Times,serif" font-size="14.00">EventSalesService </text>
</g>
<!-- EventsService  -->
<g id="node3" class="node">
<title>EventsService </title>
<polygon fill="#fb8072" stroke="black" points="291.58,-252 192.42,-252 192.42,-216 291.58,-216 291.58,-252"/>
<text text-anchor="middle" x="242" y="-229.8" font-family="Times,serif" font-size="14.00">EventsService </text>
</g>
<!-- EventsModule -->
<g id="node4" class="node">
<title>EventsModule</title>
<polygon fill="#8dd3c7" stroke="black" points="420.65,-187 417.65,-191 396.65,-191 393.65,-187 323.35,-187 323.35,-151 420.65,-151 420.65,-187"/>
<text text-anchor="middle" x="372" y="-164.8" font-family="Times,serif" font-size="14.00">EventsModule</text>
</g>
<!-- EventsModule&#45;&gt;EventPricesService  -->
<g id="edge1" class="edge">
<title>EventsModule&#45;&gt;EventPricesService </title>
<path fill="none" stroke="black" stroke-dasharray="5,2" d="M420.76,-175C455.24,-175 495.36,-175 495.36,-175 495.36,-175 495.36,-205.98 495.36,-205.98"/>
<polygon fill="black" stroke="black" points="491.86,-205.98 495.36,-215.98 498.86,-205.98 491.86,-205.98"/>
</g>
<!-- EventsModule&#45;&gt;EventSalesService  -->
<g id="edge2" class="edge">
<title>EventsModule&#45;&gt;EventSalesService </title>
<path fill="none" stroke="black" stroke-dasharray="5,2" d="M372,-187.11C372,-187.11 372,-205.99 372,-205.99"/>
<polygon fill="black" stroke="black" points="368.5,-205.99 372,-215.99 375.5,-205.99 368.5,-205.99"/>
</g>
<!-- EventsModule&#45;&gt;EventsService  -->
<g id="edge3" class="edge">
<title>EventsModule&#45;&gt;EventsService </title>
<path fill="none" stroke="black" stroke-dasharray="5,2" d="M323.34,-175C292.07,-175 257.26,-175 257.26,-175 257.26,-175 257.26,-205.98 257.26,-205.98"/>
<polygon fill="black" stroke="black" points="253.76,-205.98 257.26,-215.98 260.76,-205.98 253.76,-205.98"/>
</g>
<!-- EventPricesService -->
<g id="node5" class="node">
<title>EventPricesService</title>
<ellipse fill="#fdb462" stroke="black" cx="643" cy="-104" rx="86.23" ry="18"/>
<text text-anchor="middle" x="643" y="-99.8" font-family="Times,serif" font-size="14.00">EventPricesService</text>
</g>
<!-- EventPricesService&#45;&gt;EventsModule -->
<g id="edge4" class="edge">
<title>EventPricesService&#45;&gt;EventsModule</title>
<path fill="none" stroke="black" d="M568.53,-113.22C568.53,-129.81 568.53,-163 568.53,-163 568.53,-163 430.83,-163 430.83,-163"/>
<polygon fill="black" stroke="black" points="430.83,-159.5 420.83,-163 430.83,-166.5 430.83,-159.5"/>
</g>
<!-- EventSalesService -->
<g id="node6" class="node">
<title>EventSalesService</title>
<ellipse fill="#fdb462" stroke="black" cx="456" cy="-104" rx="82.8" ry="18"/>
<text text-anchor="middle" x="456" y="-99.8" font-family="Times,serif" font-size="14.00">EventSalesService</text>
</g>
<!-- EventSalesService&#45;&gt;EventsModule -->
<g id="edge5" class="edge">
<title>EventSalesService&#45;&gt;EventsModule</title>
<path fill="none" stroke="black" d="M396.96,-116.84C396.96,-116.84 396.96,-140.52 396.96,-140.52"/>
<polygon fill="black" stroke="black" points="393.46,-140.52 396.96,-150.52 400.46,-140.52 393.46,-140.52"/>
</g>
<!-- EventsService -->
<g id="node7" class="node">
<title>EventsService</title>
<ellipse fill="#fdb462" stroke="black" cx="289" cy="-104" rx="66.05" ry="18"/>
<text text-anchor="middle" x="289" y="-99.8" font-family="Times,serif" font-size="14.00">EventsService</text>
</g>
<!-- EventsService&#45;&gt;EventsModule -->
<g id="edge6" class="edge">
<title>EventsService&#45;&gt;EventsModule</title>
<path fill="none" stroke="black" d="M339.22,-115.92C339.22,-115.92 339.22,-140.77 339.22,-140.77"/>
<polygon fill="black" stroke="black" points="335.72,-140.77 339.22,-150.77 342.72,-140.77 335.72,-140.77"/>
</g>
<!-- QueryHelperService -->
<g id="node8" class="node">
<title>QueryHelperService</title>
<ellipse fill="#fdb462" stroke="black" cx="114" cy="-104" rx="90.29" ry="18"/>
<text text-anchor="middle" x="114" y="-99.8" font-family="Times,serif" font-size="14.00">QueryHelperService</text>
</g>
<!-- QueryHelperService&#45;&gt;EventsModule -->
<g id="edge7" class="edge">
<title>QueryHelperService&#45;&gt;EventsModule</title>
<path fill="none" stroke="black" d="M198.3,-110.77C198.3,-126.27 198.3,-163 198.3,-163 198.3,-163 313.15,-163 313.15,-163"/>
<polygon fill="black" stroke="black" points="313.15,-166.5 323.15,-163 313.15,-159.5 313.15,-166.5"/>
</g>
</g>
</svg>
