<?xml version="1.0" encoding="UTF-8" standalone="no"?>
<!DOCTYPE svg PUBLIC "-//W3C//DTD SVG 1.1//EN"
 "http://www.w3.org/Graphics/SVG/1.1/DTD/svg11.dtd">
<!-- Generated by graphviz version 2.47.0 (20210316.0004)
 -->
<!-- Title: dependencies Pages: 1 -->
<svg width="536pt" height="211pt"
 viewBox="0.00 0.00 536.00 211.00" xmlns="http://www.w3.org/2000/svg" xmlns:xlink="http://www.w3.org/1999/xlink">
<g id="graph0" class="graph" transform="scale(1 1) rotate(0) translate(4 207)">
<title>dependencies</title>
<polygon fill="white" stroke="transparent" points="-4,4 -4,-207 532,-207 532,4 -4,4"/>
<text text-anchor="start" x="243.01" y="-42.4" font-family="Times-12" font-weight="bold" font-size="14.00">Legend</text>
<polygon fill="#ffffb3" stroke="transparent" points="30,-10 30,-30 50,-30 50,-10 30,-10"/>
<text text-anchor="start" x="53.63" y="-15.4" font-family="Times-12" font-size="14.00"> &#160;Declarations</text>
<polygon fill="#8dd3c7" stroke="transparent" points="143,-10 143,-30 163,-30 163,-10 143,-10"/>
<text text-anchor="start" x="166.73" y="-15.4" font-family="Times-12" font-size="14.00"> &#160;Module</text>
<polygon fill="#80b1d3" stroke="transparent" points="229,-10 229,-30 249,-30 249,-10 229,-10"/>
<text text-anchor="start" x="252.78" y="-15.4" font-family="Times-12" font-size="14.00"> &#160;Bootstrap</text>
<polygon fill="#fdb462" stroke="transparent" points="326,-10 326,-30 346,-30 346,-10 326,-10"/>
<text text-anchor="start" x="349.67" y="-15.4" font-family="Times-12" font-size="14.00"> &#160;Providers</text>
<polygon fill="#fb8072" stroke="transparent" points="422,-10 422,-30 442,-30 442,-10 422,-10"/>
<text text-anchor="start" x="445.73" y="-15.4" font-family="Times-12" font-size="14.00"> &#160;Exports</text>
<g id="clust1" class="cluster">
<title>cluster_ReservationDetailsModule</title>
<polygon fill="none" stroke="black" stroke-dasharray="1,5" points="8,-70 8,-195 520,-195 520,-70 8,-70"/>
</g>
<g id="clust3" class="cluster">
<title>cluster_ReservationDetailsModule_imports</title>
<polygon fill="none" stroke="black" points="266,-78 266,-130 512,-130 512,-78 266,-78"/>
</g>
<g id="clust6" class="cluster">
<title>cluster_ReservationDetailsModule_providers</title>
<polygon fill="none" stroke="black" points="16,-78 16,-130 258,-130 258,-78 16,-78"/>
</g>
<!-- CartItemsModule -->
<g id="node1" class="node">
<title>CartItemsModule</title>
<polygon fill="#8dd3c7" stroke="black" points="504.25,-122 501.25,-126 480.25,-126 477.25,-122 389.75,-122 389.75,-86 504.25,-86 504.25,-122"/>
<text text-anchor="middle" x="447" y="-99.8" font-family="Times,serif" font-size="14.00">CartItemsModule</text>
</g>
<!-- ReservationDetailsModule -->
<g id="node3" class="node">
<title>ReservationDetailsModule</title>
<polygon fill="#8dd3c7" stroke="black" points="406.07,-187 403.07,-191 382.07,-191 379.07,-187 239.93,-187 239.93,-151 406.07,-151 406.07,-187"/>
<text text-anchor="middle" x="323" y="-164.8" font-family="Times,serif" font-size="14.00">ReservationDetailsModule</text>
</g>
<!-- CartItemsModule&#45;&gt;ReservationDetailsModule -->
<g id="edge1" class="edge">
<title>CartItemsModule&#45;&gt;ReservationDetailsModule</title>
<path fill="none" stroke="black" d="M397.83,-122.11C397.83,-122.11 397.83,-140.99 397.83,-140.99"/>
<polygon fill="black" stroke="black" points="394.33,-140.99 397.83,-150.99 401.33,-140.99 394.33,-140.99"/>
</g>
<!-- EventsModule -->
<g id="node2" class="node">
<title>EventsModule</title>
<polygon fill="#8dd3c7" stroke="black" points="371.65,-122 368.65,-126 347.65,-126 344.65,-122 274.35,-122 274.35,-86 371.65,-86 371.65,-122"/>
<text text-anchor="middle" x="323" y="-99.8" font-family="Times,serif" font-size="14.00">EventsModule</text>
</g>
<!-- EventsModule&#45;&gt;ReservationDetailsModule -->
<g id="edge2" class="edge">
<title>EventsModule&#45;&gt;ReservationDetailsModule</title>
<path fill="none" stroke="black" d="M323,-122.11C323,-122.11 323,-140.99 323,-140.99"/>
<polygon fill="black" stroke="black" points="319.5,-140.99 323,-150.99 326.5,-140.99 319.5,-140.99"/>
</g>
<!-- ReservationDetailsService -->
<g id="node4" class="node">
<title>ReservationDetailsService</title>
<ellipse fill="#fdb462" stroke="black" cx="137" cy="-104" rx="113.43" ry="18"/>
<text text-anchor="middle" x="137" y="-99.8" font-family="Times,serif" font-size="14.00">ReservationDetailsService</text>
</g>
<!-- ReservationDetailsService&#45;&gt;ReservationDetailsModule -->
<g id="edge3" class="edge">
<title>ReservationDetailsService&#45;&gt;ReservationDetailsModule</title>
<path fill="none" stroke="black" d="M245.22,-109.54C245.22,-109.54 245.22,-140.75 245.22,-140.75"/>
<polygon fill="black" stroke="black" points="241.72,-140.75 245.22,-150.75 248.72,-140.75 241.72,-140.75"/>
</g>
</g>
</svg>
