<?xml version="1.0" encoding="UTF-8" standalone="no"?>
<!DOCTYPE svg PUBLIC "-//W3C//DTD SVG 1.1//EN"
 "http://www.w3.org/Graphics/SVG/1.1/DTD/svg11.dtd">
<!-- Generated by graphviz version 2.47.0 (20210316.0004)
 -->
<!-- Title: dependencies Pages: 1 -->
<svg width="536pt" height="211pt"
 viewBox="0.00 0.00 536.00 211.00" xmlns="http://www.w3.org/2000/svg" xmlns:xlink="http://www.w3.org/1999/xlink">
<g id="graph0" class="graph" transform="scale(1 1) rotate(0) translate(4 207)">
<title>dependencies</title>
<polygon fill="white" stroke="transparent" points="-4,4 -4,-207 532,-207 532,4 -4,4"/>
<text text-anchor="start" x="243.01" y="-42.4" font-family="Times-12" font-weight="bold" font-size="14.00">Legend</text>
<polygon fill="#ffffb3" stroke="transparent" points="30,-10 30,-30 50,-30 50,-10 30,-10"/>
<text text-anchor="start" x="53.63" y="-15.4" font-family="Times-12" font-size="14.00"> &#160;Declarations</text>
<polygon fill="#8dd3c7" stroke="transparent" points="143,-10 143,-30 163,-30 163,-10 143,-10"/>
<text text-anchor="start" x="166.73" y="-15.4" font-family="Times-12" font-size="14.00"> &#160;Module</text>
<polygon fill="#80b1d3" stroke="transparent" points="229,-10 229,-30 249,-30 249,-10 229,-10"/>
<text text-anchor="start" x="252.78" y="-15.4" font-family="Times-12" font-size="14.00"> &#160;Bootstrap</text>
<polygon fill="#fdb462" stroke="transparent" points="326,-10 326,-30 346,-30 346,-10 326,-10"/>
<text text-anchor="start" x="349.67" y="-15.4" font-family="Times-12" font-size="14.00"> &#160;Providers</text>
<polygon fill="#fb8072" stroke="transparent" points="422,-10 422,-30 442,-30 442,-10 422,-10"/>
<text text-anchor="start" x="445.73" y="-15.4" font-family="Times-12" font-size="14.00"> &#160;Exports</text>
<g id="clust1" class="cluster">
<title>cluster_ReservationDetailsModule</title>
<polygon fill="none" stroke="black" stroke-dasharray="1,5" points="8,-70 8,-195 520,-195 520,-70 8,-70"/>
</g>
<g id="clust6" class="cluster">
<title>cluster_ReservationDetailsModule_providers</title>
<polygon fill="none" stroke="black" points="270,-78 270,-130 512,-130 512,-78 270,-78"/>
</g>
<g id="clust3" class="cluster">
<title>cluster_ReservationDetailsModule_imports</title>
<polygon fill="none" stroke="black" points="16,-78 16,-130 262,-130 262,-78 16,-78"/>
</g>
<!-- CartItemsModule -->
<g id="node1" class="node">
<title>CartItemsModule</title>
<polygon fill="#8dd3c7" stroke="black" points="254.25,-122 251.25,-126 230.25,-126 227.25,-122 139.75,-122 139.75,-86 254.25,-86 254.25,-122"/>
<text text-anchor="middle" x="197" y="-99.8" font-family="Times,serif" font-size="14.00">CartItemsModule</text>
</g>
<!-- ReservationDetailsModule -->
<g id="node3" class="node">
<title>ReservationDetailsModule</title>
<polygon fill="#8dd3c7" stroke="black" points="280.07,-187 277.07,-191 256.07,-191 253.07,-187 113.93,-187 113.93,-151 280.07,-151 280.07,-187"/>
<text text-anchor="middle" x="197" y="-164.8" font-family="Times,serif" font-size="14.00">ReservationDetailsModule</text>
</g>
<!-- CartItemsModule&#45;&gt;ReservationDetailsModule -->
<g id="edge1" class="edge">
<title>CartItemsModule&#45;&gt;ReservationDetailsModule</title>
<path fill="none" stroke="black" d="M197,-122.11C197,-122.11 197,-140.99 197,-140.99"/>
<polygon fill="black" stroke="black" points="193.5,-140.99 197,-150.99 200.5,-140.99 193.5,-140.99"/>
</g>
<!-- EventsModule -->
<g id="node2" class="node">
<title>EventsModule</title>
<polygon fill="#8dd3c7" stroke="black" points="121.65,-122 118.65,-126 97.65,-126 94.65,-122 24.35,-122 24.35,-86 121.65,-86 121.65,-122"/>
<text text-anchor="middle" x="73" y="-99.8" font-family="Times,serif" font-size="14.00">EventsModule</text>
</g>
<!-- EventsModule&#45;&gt;ReservationDetailsModule -->
<g id="edge2" class="edge">
<title>EventsModule&#45;&gt;ReservationDetailsModule</title>
<path fill="none" stroke="black" d="M117.9,-122.11C117.9,-122.11 117.9,-140.99 117.9,-140.99"/>
<polygon fill="black" stroke="black" points="114.4,-140.99 117.9,-150.99 121.4,-140.99 114.4,-140.99"/>
</g>
<!-- ReservationDetailsService -->
<g id="node4" class="node">
<title>ReservationDetailsService</title>
<ellipse fill="#fdb462" stroke="black" cx="391" cy="-104" rx="113.43" ry="18"/>
<text text-anchor="middle" x="391" y="-99.8" font-family="Times,serif" font-size="14.00">ReservationDetailsService</text>
</g>
<!-- ReservationDetailsService&#45;&gt;ReservationDetailsModule -->
<g id="edge3" class="edge">
<title>ReservationDetailsService&#45;&gt;ReservationDetailsModule</title>
<path fill="none" stroke="black" d="M277.49,-104C270.35,-104 265.95,-104 265.95,-104 265.95,-104 265.95,-140.89 265.95,-140.89"/>
<polygon fill="black" stroke="black" points="262.46,-140.89 265.95,-150.89 269.46,-140.89 262.46,-140.89"/>
</g>
</g>
</svg>
