<?xml version="1.0" encoding="UTF-8" standalone="no"?>
<!DOCTYPE svg PUBLIC "-//W3C//DTD SVG 1.1//EN"
 "http://www.w3.org/Graphics/SVG/1.1/DTD/svg11.dtd">
<!-- Generated by graphviz version 2.47.0 (20210316.0004)
 -->
<!-- Title: dependencies Pages: 1 -->
<svg width="1515pt" height="211pt"
 viewBox="0.00 0.00 1515.00 211.00" xmlns="http://www.w3.org/2000/svg" xmlns:xlink="http://www.w3.org/1999/xlink">
<g id="graph0" class="graph" transform="scale(1 1) rotate(0) translate(4 207)">
<title>dependencies</title>
<polygon fill="white" stroke="transparent" points="-4,4 -4,-207 1511,-207 1511,4 -4,4"/>
<text text-anchor="start" x="732.51" y="-42.4" font-family="Times-12" font-weight="bold" font-size="14.00">Legend</text>
<polygon fill="#ffffb3" stroke="transparent" points="519.5,-10 519.5,-30 539.5,-30 539.5,-10 519.5,-10"/>
<text text-anchor="start" x="543.13" y="-15.4" font-family="Times-12" font-size="14.00"> &#160;Declarations</text>
<polygon fill="#8dd3c7" stroke="transparent" points="632.5,-10 632.5,-30 652.5,-30 652.5,-10 632.5,-10"/>
<text text-anchor="start" x="656.23" y="-15.4" font-family="Times-12" font-size="14.00"> &#160;Module</text>
<polygon fill="#80b1d3" stroke="transparent" points="718.5,-10 718.5,-30 738.5,-30 738.5,-10 718.5,-10"/>
<text text-anchor="start" x="742.28" y="-15.4" font-family="Times-12" font-size="14.00"> &#160;Bootstrap</text>
<polygon fill="#fdb462" stroke="transparent" points="815.5,-10 815.5,-30 835.5,-30 835.5,-10 815.5,-10"/>
<text text-anchor="start" x="839.17" y="-15.4" font-family="Times-12" font-size="14.00"> &#160;Providers</text>
<polygon fill="#fb8072" stroke="transparent" points="911.5,-10 911.5,-30 931.5,-30 931.5,-10 911.5,-10"/>
<text text-anchor="start" x="935.23" y="-15.4" font-family="Times-12" font-size="14.00"> &#160;Exports</text>
<g id="clust1" class="cluster">
<title>cluster_AppModule</title>
<polygon fill="none" stroke="black" stroke-dasharray="1,5" points="8,-70 8,-195 1499,-195 1499,-70 8,-70"/>
</g>
<g id="clust3" class="cluster">
<title>cluster_AppModule_imports</title>
<polygon fill="none" stroke="black" points="16,-78 16,-130 1491,-130 1491,-78 16,-78"/>
</g>
<!-- AuthModule -->
<g id="node1" class="node">
<title>AuthModule</title>
<polygon fill="#8dd3c7" stroke="black" points="1482.55,-122 1479.55,-126 1458.55,-126 1455.55,-122 1395.45,-122 1395.45,-86 1482.55,-86 1482.55,-122"/>
<text text-anchor="middle" x="1439" y="-99.8" font-family="Times,serif" font-size="14.00">AuthModule</text>
</g>
<!-- AppModule -->
<g id="node13" class="node">
<title>AppModule</title>
<polygon fill="#8dd3c7" stroke="black" points="821.66,-187 818.66,-191 797.66,-191 794.66,-187 738.34,-187 738.34,-151 821.66,-151 821.66,-187"/>
<text text-anchor="middle" x="780" y="-164.8" font-family="Times,serif" font-size="14.00">AppModule</text>
</g>
<!-- AuthModule&#45;&gt;AppModule -->
<g id="edge1" class="edge">
<title>AuthModule&#45;&gt;AppModule</title>
<path fill="none" stroke="black" d="M1439,-122.09C1439,-145.13 1439,-182 1439,-182 1439,-182 831.72,-182 831.72,-182"/>
<polygon fill="black" stroke="black" points="831.72,-178.5 821.72,-182 831.72,-185.5 831.72,-178.5"/>
</g>
<!-- CartItemsModule -->
<g id="node2" class="node">
<title>CartItemsModule</title>
<polygon fill="#8dd3c7" stroke="black" points="1377.25,-122 1374.25,-126 1353.25,-126 1350.25,-122 1262.75,-122 1262.75,-86 1377.25,-86 1377.25,-122"/>
<text text-anchor="middle" x="1320" y="-99.8" font-family="Times,serif" font-size="14.00">CartItemsModule</text>
</g>
<!-- CartItemsModule&#45;&gt;AppModule -->
<g id="edge2" class="edge">
<title>CartItemsModule&#45;&gt;AppModule</title>
<path fill="none" stroke="black" d="M1320,-122.28C1320,-143.32 1320,-175 1320,-175 1320,-175 831.92,-175 831.92,-175"/>
<polygon fill="black" stroke="black" points="831.92,-171.5 821.92,-175 831.92,-178.5 831.92,-171.5"/>
</g>
<!-- CartsModule -->
<g id="node3" class="node">
<title>CartsModule</title>
<polygon fill="#8dd3c7" stroke="black" points="1244.6,-122 1241.6,-126 1220.6,-126 1217.6,-122 1155.4,-122 1155.4,-86 1244.6,-86 1244.6,-122"/>
<text text-anchor="middle" x="1200" y="-99.8" font-family="Times,serif" font-size="14.00">CartsModule</text>
</g>
<!-- CartsModule&#45;&gt;AppModule -->
<g id="edge3" class="edge">
<title>CartsModule&#45;&gt;AppModule</title>
<path fill="none" stroke="black" d="M1200,-122.11C1200,-141.34 1200,-169 1200,-169 1200,-169 831.81,-169 831.81,-169"/>
<polygon fill="black" stroke="black" points="831.81,-165.5 821.81,-169 831.81,-172.5 831.81,-165.5"/>
</g>
<!-- DatabaseModule -->
<g id="node4" class="node">
<title>DatabaseModule</title>
<polygon fill="#8dd3c7" stroke="black" points="1137.35,-122 1134.35,-126 1113.35,-126 1110.35,-122 1026.65,-122 1026.65,-86 1137.35,-86 1137.35,-122"/>
<text text-anchor="middle" x="1082" y="-99.8" font-family="Times,serif" font-size="14.00">DatabaseModule</text>
</g>
<!-- DatabaseModule&#45;&gt;AppModule -->
<g id="edge4" class="edge">
<title>DatabaseModule&#45;&gt;AppModule</title>
<path fill="none" stroke="black" d="M1082,-122.02C1082,-139.37 1082,-163 1082,-163 1082,-163 831.67,-163 831.67,-163"/>
<polygon fill="black" stroke="black" points="831.67,-159.5 821.67,-163 831.67,-166.5 831.67,-159.5"/>
</g>
<!-- EventsModule -->
<g id="node5" class="node">
<title>EventsModule</title>
<polygon fill="#8dd3c7" stroke="black" points="1008.65,-122 1005.65,-126 984.65,-126 981.65,-122 911.35,-122 911.35,-86 1008.65,-86 1008.65,-122"/>
<text text-anchor="middle" x="960" y="-99.8" font-family="Times,serif" font-size="14.00">EventsModule</text>
</g>
<!-- EventsModule&#45;&gt;AppModule -->
<g id="edge5" class="edge">
<title>EventsModule&#45;&gt;AppModule</title>
<path fill="none" stroke="black" d="M960,-122.24C960,-137.57 960,-157 960,-157 960,-157 831.75,-157 831.75,-157"/>
<polygon fill="black" stroke="black" points="831.75,-153.5 821.75,-157 831.75,-160.5 831.75,-153.5"/>
</g>
<!-- PaymentModule -->
<g id="node6" class="node">
<title>PaymentModule</title>
<polygon fill="#8dd3c7" stroke="black" points="893.04,-122 890.04,-126 869.04,-126 866.04,-122 784.96,-122 784.96,-86 893.04,-86 893.04,-122"/>
<text text-anchor="middle" x="839" y="-99.8" font-family="Times,serif" font-size="14.00">PaymentModule</text>
</g>
<!-- PaymentModule&#45;&gt;AppModule -->
<g id="edge6" class="edge">
<title>PaymentModule&#45;&gt;AppModule</title>
<path fill="none" stroke="black" d="M803.28,-122.11C803.28,-122.11 803.28,-140.99 803.28,-140.99"/>
<polygon fill="black" stroke="black" points="799.78,-140.99 803.28,-150.99 806.78,-140.99 799.78,-140.99"/>
</g>
<!-- RedisModule -->
<g id="node7" class="node">
<title>RedisModule</title>
<polygon fill="#8dd3c7" stroke="black" points="766.94,-122 763.94,-126 742.94,-126 739.94,-122 675.06,-122 675.06,-86 766.94,-86 766.94,-122"/>
<text text-anchor="middle" x="721" y="-99.8" font-family="Times,serif" font-size="14.00">RedisModule</text>
</g>
<!-- RedisModule&#45;&gt;AppModule -->
<g id="edge7" class="edge">
<title>RedisModule&#45;&gt;AppModule</title>
<path fill="none" stroke="black" d="M752.44,-122.11C752.44,-122.11 752.44,-140.99 752.44,-140.99"/>
<polygon fill="black" stroke="black" points="748.95,-140.99 752.44,-150.99 755.95,-140.99 748.95,-140.99"/>
</g>
<!-- ReservationsModule -->
<g id="node8" class="node">
<title>ReservationsModule</title>
<polygon fill="#8dd3c7" stroke="black" points="656.86,-122 653.86,-126 632.86,-126 629.86,-122 525.14,-122 525.14,-86 656.86,-86 656.86,-122"/>
<text text-anchor="middle" x="591" y="-99.8" font-family="Times,serif" font-size="14.00">ReservationsModule</text>
</g>
<!-- ReservationsModule&#45;&gt;AppModule -->
<g id="edge8" class="edge">
<title>ReservationsModule&#45;&gt;AppModule</title>
<path fill="none" stroke="black" d="M591,-122.24C591,-137.57 591,-157 591,-157 591,-157 728.05,-157 728.05,-157"/>
<polygon fill="black" stroke="black" points="728.05,-160.5 738.05,-157 728.05,-153.5 728.05,-160.5"/>
</g>
<!-- ThrollerModule -->
<g id="node9" class="node">
<title>ThrollerModule</title>
<polygon fill="#8dd3c7" stroke="black" points="506.92,-122 503.92,-126 482.92,-126 479.92,-122 401.08,-122 401.08,-86 506.92,-86 506.92,-122"/>
<text text-anchor="middle" x="454" y="-99.8" font-family="Times,serif" font-size="14.00">ThrollerModule</text>
</g>
<!-- ThrollerModule&#45;&gt;AppModule -->
<g id="edge9" class="edge">
<title>ThrollerModule&#45;&gt;AppModule</title>
<path fill="none" stroke="black" d="M454,-122.02C454,-139.37 454,-163 454,-163 454,-163 728.05,-163 728.05,-163"/>
<polygon fill="black" stroke="black" points="728.05,-166.5 738.05,-163 728.05,-159.5 728.05,-166.5"/>
</g>
<!-- TicketsModule -->
<g id="node10" class="node">
<title>TicketsModule</title>
<polygon fill="#8dd3c7" stroke="black" points="383.26,-122 380.26,-126 359.26,-126 356.26,-122 282.74,-122 282.74,-86 383.26,-86 383.26,-122"/>
<text text-anchor="middle" x="333" y="-99.8" font-family="Times,serif" font-size="14.00">TicketsModule</text>
</g>
<!-- TicketsModule&#45;&gt;AppModule -->
<g id="edge10" class="edge">
<title>TicketsModule&#45;&gt;AppModule</title>
<path fill="none" stroke="black" d="M333,-122.11C333,-141.34 333,-169 333,-169 333,-169 727.95,-169 727.95,-169"/>
<polygon fill="black" stroke="black" points="727.95,-172.5 737.95,-169 727.95,-165.5 727.95,-172.5"/>
</g>
<!-- TransactionsModule -->
<g id="node11" class="node">
<title>TransactionsModule</title>
<polygon fill="#8dd3c7" stroke="black" points="264.58,-122 261.58,-126 240.58,-126 237.58,-122 133.42,-122 133.42,-86 264.58,-86 264.58,-122"/>
<text text-anchor="middle" x="199" y="-99.8" font-family="Times,serif" font-size="14.00">TransactionsModule</text>
</g>
<!-- TransactionsModule&#45;&gt;AppModule -->
<g id="edge11" class="edge">
<title>TransactionsModule&#45;&gt;AppModule</title>
<path fill="none" stroke="black" d="M199,-122.28C199,-143.32 199,-175 199,-175 199,-175 728.22,-175 728.22,-175"/>
<polygon fill="black" stroke="black" points="728.22,-178.5 738.22,-175 728.22,-171.5 728.22,-178.5"/>
</g>
<!-- UsersModule -->
<g id="node12" class="node">
<title>UsersModule</title>
<polygon fill="#8dd3c7" stroke="black" points="115.92,-122 112.92,-126 91.92,-126 88.92,-122 24.08,-122 24.08,-86 115.92,-86 115.92,-122"/>
<text text-anchor="middle" x="70" y="-99.8" font-family="Times,serif" font-size="14.00">UsersModule</text>
</g>
<!-- UsersModule&#45;&gt;AppModule -->
<g id="edge12" class="edge">
<title>UsersModule&#45;&gt;AppModule</title>
<path fill="none" stroke="black" d="M70,-122.09C70,-145.13 70,-182 70,-182 70,-182 728.24,-182 728.24,-182"/>
<polygon fill="black" stroke="black" points="728.24,-185.5 738.24,-182 728.24,-178.5 728.24,-185.5"/>
</g>
</g>
</svg>
