<?xml version="1.0" encoding="UTF-8" standalone="no"?>
<!DOCTYPE svg PUBLIC "-//W3C//DTD SVG 1.1//EN"
 "http://www.w3.org/Graphics/SVG/1.1/DTD/svg11.dtd">
<!-- Generated by graphviz version 2.47.0 (20210316.0004)
 -->
<!-- Title: dependencies Pages: 1 -->
<svg width="686pt" height="284pt"
 viewBox="0.00 0.00 686.00 284.00" xmlns="http://www.w3.org/2000/svg" xmlns:xlink="http://www.w3.org/1999/xlink">
<g id="graph0" class="graph" transform="scale(1 1) rotate(0) translate(4 280)">
<title>dependencies</title>
<polygon fill="white" stroke="transparent" points="-4,4 -4,-280 682,-280 682,4 -4,4"/>
<text text-anchor="start" x="318.01" y="-42.4" font-family="Times-12" font-weight="bold" font-size="14.00">Legend</text>
<polygon fill="#ffffb3" stroke="transparent" points="105,-10 105,-30 125,-30 125,-10 105,-10"/>
<text text-anchor="start" x="128.63" y="-15.4" font-family="Times-12" font-size="14.00"> &#160;Declarations</text>
<polygon fill="#8dd3c7" stroke="transparent" points="218,-10 218,-30 238,-30 238,-10 218,-10"/>
<text text-anchor="start" x="241.73" y="-15.4" font-family="Times-12" font-size="14.00"> &#160;Module</text>
<polygon fill="#80b1d3" stroke="transparent" points="304,-10 304,-30 324,-30 324,-10 304,-10"/>
<text text-anchor="start" x="327.78" y="-15.4" font-family="Times-12" font-size="14.00"> &#160;Bootstrap</text>
<polygon fill="#fdb462" stroke="transparent" points="401,-10 401,-30 421,-30 421,-10 401,-10"/>
<text text-anchor="start" x="424.67" y="-15.4" font-family="Times-12" font-size="14.00"> &#160;Providers</text>
<polygon fill="#fb8072" stroke="transparent" points="497,-10 497,-30 517,-30 517,-10 497,-10"/>
<text text-anchor="start" x="520.73" y="-15.4" font-family="Times-12" font-size="14.00"> &#160;Exports</text>
<g id="clust1" class="cluster">
<title>cluster_CartItemsModule</title>
<polygon fill="none" stroke="black" stroke-dasharray="1,5" points="8,-70 8,-268 670,-268 670,-70 8,-70"/>
</g>
<g id="clust6" class="cluster">
<title>cluster_CartItemsModule_providers</title>
<polygon fill="none" stroke="black" points="245,-78 245,-130 662,-130 662,-78 245,-78"/>
</g>
<g id="clust3" class="cluster">
<title>cluster_CartItemsModule_imports</title>
<polygon fill="none" stroke="black" points="16,-78 16,-130 237,-130 237,-78 16,-78"/>
</g>
<g id="clust4" class="cluster">
<title>cluster_CartItemsModule_exports</title>
<polygon fill="none" stroke="black" points="209,-208 209,-260 341,-260 341,-208 209,-208"/>
</g>
<!-- CartsModule -->
<g id="node1" class="node">
<title>CartsModule</title>
<polygon fill="#8dd3c7" stroke="black" points="228.6,-122 225.6,-126 204.6,-126 201.6,-122 139.4,-122 139.4,-86 228.6,-86 228.6,-122"/>
<text text-anchor="middle" x="184" y="-99.8" font-family="Times,serif" font-size="14.00">CartsModule</text>
</g>
<!-- CartItemsModule -->
<g id="node3" class="node">
<title>CartItemsModule</title>
<polygon fill="#8dd3c7" stroke="black" points="332.25,-187 329.25,-191 308.25,-191 305.25,-187 217.75,-187 217.75,-151 332.25,-151 332.25,-187"/>
<text text-anchor="middle" x="275" y="-164.8" font-family="Times,serif" font-size="14.00">CartItemsModule</text>
</g>
<!-- CartsModule&#45;&gt;CartItemsModule -->
<g id="edge1" class="edge">
<title>CartsModule&#45;&gt;CartItemsModule</title>
<path fill="none" stroke="black" d="M223.09,-122.11C223.09,-122.11 223.09,-140.99 223.09,-140.99"/>
<polygon fill="black" stroke="black" points="219.59,-140.99 223.09,-150.99 226.59,-140.99 219.59,-140.99"/>
</g>
<!-- EventsModule -->
<g id="node2" class="node">
<title>EventsModule</title>
<polygon fill="#8dd3c7" stroke="black" points="121.65,-122 118.65,-126 97.65,-126 94.65,-122 24.35,-122 24.35,-86 121.65,-86 121.65,-122"/>
<text text-anchor="middle" x="73" y="-99.8" font-family="Times,serif" font-size="14.00">EventsModule</text>
</g>
<!-- EventsModule&#45;&gt;CartItemsModule -->
<g id="edge2" class="edge">
<title>EventsModule&#45;&gt;CartItemsModule</title>
<path fill="none" stroke="black" d="M73,-122.11C73,-141.34 73,-169 73,-169 73,-169 207.66,-169 207.66,-169"/>
<polygon fill="black" stroke="black" points="207.66,-172.5 217.66,-169 207.66,-165.5 207.66,-172.5"/>
</g>
<!-- CartItemsService  -->
<g id="node4" class="node">
<title>CartItemsService </title>
<polygon fill="#fb8072" stroke="black" points="333.18,-252 216.82,-252 216.82,-216 333.18,-216 333.18,-252"/>
<text text-anchor="middle" x="275" y="-229.8" font-family="Times,serif" font-size="14.00">CartItemsService </text>
</g>
<!-- CartItemsModule&#45;&gt;CartItemsService  -->
<g id="edge3" class="edge">
<title>CartItemsModule&#45;&gt;CartItemsService </title>
<path fill="none" stroke="black" stroke-dasharray="5,2" d="M275,-187.11C275,-187.11 275,-205.99 275,-205.99"/>
<polygon fill="black" stroke="black" points="271.5,-205.99 275,-215.99 278.5,-205.99 271.5,-205.99"/>
</g>
<!-- CartItemsService -->
<g id="node5" class="node">
<title>CartItemsService</title>
<ellipse fill="#fdb462" stroke="black" cx="576" cy="-104" rx="78.14" ry="18"/>
<text text-anchor="middle" x="576" y="-99.8" font-family="Times,serif" font-size="14.00">CartItemsService</text>
</g>
<!-- CartItemsService&#45;&gt;CartItemsModule -->
<g id="edge4" class="edge">
<title>CartItemsService&#45;&gt;CartItemsModule</title>
<path fill="none" stroke="black" d="M576,-122.11C576,-141.34 576,-169 576,-169 576,-169 342.32,-169 342.32,-169"/>
<polygon fill="black" stroke="black" points="342.32,-165.5 332.32,-169 342.32,-172.5 342.32,-165.5"/>
</g>
<!-- ReservationDetailsService -->
<g id="node6" class="node">
<title>ReservationDetailsService</title>
<ellipse fill="#fdb462" stroke="black" cx="366" cy="-104" rx="113.43" ry="18"/>
<text text-anchor="middle" x="366" y="-99.8" font-family="Times,serif" font-size="14.00">ReservationDetailsService</text>
</g>
<!-- ReservationDetailsService&#45;&gt;CartItemsModule -->
<g id="edge5" class="edge">
<title>ReservationDetailsService&#45;&gt;CartItemsModule</title>
<path fill="none" stroke="black" d="M292.45,-117.78C292.45,-117.78 292.45,-140.55 292.45,-140.55"/>
<polygon fill="black" stroke="black" points="288.96,-140.55 292.45,-150.55 295.96,-140.55 288.96,-140.55"/>
</g>
</g>
</svg>
