<?xml version="1.0" encoding="UTF-8" standalone="no"?>
<!DOCTYPE svg PUBLIC "-//W3C//DTD SVG 1.1//EN"
 "http://www.w3.org/Graphics/SVG/1.1/DTD/svg11.dtd">
<!-- Generated by graphviz version 2.47.0 (20210316.0004)
 -->
<!-- Title: dependencies Pages: 1 -->
<svg width="686pt" height="284pt"
 viewBox="0.00 0.00 686.00 284.00" xmlns="http://www.w3.org/2000/svg" xmlns:xlink="http://www.w3.org/1999/xlink">
<g id="graph0" class="graph" transform="scale(1 1) rotate(0) translate(4 280)">
<title>dependencies</title>
<polygon fill="white" stroke="transparent" points="-4,4 -4,-280 682,-280 682,4 -4,4"/>
<text text-anchor="start" x="318.01" y="-42.4" font-family="Times-12" font-weight="bold" font-size="14.00">Legend</text>
<polygon fill="#ffffb3" stroke="transparent" points="105,-10 105,-30 125,-30 125,-10 105,-10"/>
<text text-anchor="start" x="128.63" y="-15.4" font-family="Times-12" font-size="14.00"> &#160;Declarations</text>
<polygon fill="#8dd3c7" stroke="transparent" points="218,-10 218,-30 238,-30 238,-10 218,-10"/>
<text text-anchor="start" x="241.73" y="-15.4" font-family="Times-12" font-size="14.00"> &#160;Module</text>
<polygon fill="#80b1d3" stroke="transparent" points="304,-10 304,-30 324,-30 324,-10 304,-10"/>
<text text-anchor="start" x="327.78" y="-15.4" font-family="Times-12" font-size="14.00"> &#160;Bootstrap</text>
<polygon fill="#fdb462" stroke="transparent" points="401,-10 401,-30 421,-30 421,-10 401,-10"/>
<text text-anchor="start" x="424.67" y="-15.4" font-family="Times-12" font-size="14.00"> &#160;Providers</text>
<polygon fill="#fb8072" stroke="transparent" points="497,-10 497,-30 517,-30 517,-10 497,-10"/>
<text text-anchor="start" x="520.73" y="-15.4" font-family="Times-12" font-size="14.00"> &#160;Exports</text>
<g id="clust1" class="cluster">
<title>cluster_CartItemsModule</title>
<polygon fill="none" stroke="black" stroke-dasharray="1,5" points="8,-70 8,-268 670,-268 670,-70 8,-70"/>
</g>
<g id="clust4" class="cluster">
<title>cluster_CartItemsModule_exports</title>
<polygon fill="none" stroke="black" points="356,-208 356,-260 488,-260 488,-208 356,-208"/>
</g>
<g id="clust3" class="cluster">
<title>cluster_CartItemsModule_imports</title>
<polygon fill="none" stroke="black" points="441,-78 441,-130 662,-130 662,-78 441,-78"/>
</g>
<g id="clust6" class="cluster">
<title>cluster_CartItemsModule_providers</title>
<polygon fill="none" stroke="black" points="16,-78 16,-130 433,-130 433,-78 16,-78"/>
</g>
<!-- CartsModule -->
<g id="node1" class="node">
<title>CartsModule</title>
<polygon fill="#8dd3c7" stroke="black" points="653.6,-122 650.6,-126 629.6,-126 626.6,-122 564.4,-122 564.4,-86 653.6,-86 653.6,-122"/>
<text text-anchor="middle" x="609" y="-99.8" font-family="Times,serif" font-size="14.00">CartsModule</text>
</g>
<!-- CartItemsModule -->
<g id="node3" class="node">
<title>CartItemsModule</title>
<polygon fill="#8dd3c7" stroke="black" points="479.25,-187 476.25,-191 455.25,-191 452.25,-187 364.75,-187 364.75,-151 479.25,-151 479.25,-187"/>
<text text-anchor="middle" x="422" y="-164.8" font-family="Times,serif" font-size="14.00">CartItemsModule</text>
</g>
<!-- CartsModule&#45;&gt;CartItemsModule -->
<g id="edge1" class="edge">
<title>CartsModule&#45;&gt;CartItemsModule</title>
<path fill="none" stroke="black" d="M609,-122.11C609,-141.34 609,-169 609,-169 609,-169 489.38,-169 489.38,-169"/>
<polygon fill="black" stroke="black" points="489.38,-165.5 479.38,-169 489.38,-172.5 489.38,-165.5"/>
</g>
<!-- EventsModule -->
<g id="node2" class="node">
<title>EventsModule</title>
<polygon fill="#8dd3c7" stroke="black" points="546.65,-122 543.65,-126 522.65,-126 519.65,-122 449.35,-122 449.35,-86 546.65,-86 546.65,-122"/>
<text text-anchor="middle" x="498" y="-99.8" font-family="Times,serif" font-size="14.00">EventsModule</text>
</g>
<!-- EventsModule&#45;&gt;CartItemsModule -->
<g id="edge2" class="edge">
<title>EventsModule&#45;&gt;CartItemsModule</title>
<path fill="none" stroke="black" d="M464.28,-122.11C464.28,-122.11 464.28,-140.99 464.28,-140.99"/>
<polygon fill="black" stroke="black" points="460.78,-140.99 464.28,-150.99 467.78,-140.99 460.78,-140.99"/>
</g>
<!-- CartItemsService  -->
<g id="node4" class="node">
<title>CartItemsService </title>
<polygon fill="#fb8072" stroke="black" points="480.18,-252 363.82,-252 363.82,-216 480.18,-216 480.18,-252"/>
<text text-anchor="middle" x="422" y="-229.8" font-family="Times,serif" font-size="14.00">CartItemsService </text>
</g>
<!-- CartItemsModule&#45;&gt;CartItemsService  -->
<g id="edge3" class="edge">
<title>CartItemsModule&#45;&gt;CartItemsService </title>
<path fill="none" stroke="black" stroke-dasharray="5,2" d="M422,-187.11C422,-187.11 422,-205.99 422,-205.99"/>
<polygon fill="black" stroke="black" points="418.5,-205.99 422,-215.99 425.5,-205.99 418.5,-205.99"/>
</g>
<!-- CartItemsService -->
<g id="node5" class="node">
<title>CartItemsService</title>
<ellipse fill="#fdb462" stroke="black" cx="347" cy="-104" rx="78.14" ry="18"/>
<text text-anchor="middle" x="347" y="-99.8" font-family="Times,serif" font-size="14.00">CartItemsService</text>
</g>
<!-- CartItemsService&#45;&gt;CartItemsModule -->
<g id="edge4" class="edge">
<title>CartItemsService&#45;&gt;CartItemsModule</title>
<path fill="none" stroke="black" d="M394.85,-118.43C394.85,-118.43 394.85,-140.89 394.85,-140.89"/>
<polygon fill="black" stroke="black" points="391.35,-140.89 394.85,-150.89 398.35,-140.89 391.35,-140.89"/>
</g>
<!-- ReservationDetailsService -->
<g id="node6" class="node">
<title>ReservationDetailsService</title>
<ellipse fill="#fdb462" stroke="black" cx="137" cy="-104" rx="113.43" ry="18"/>
<text text-anchor="middle" x="137" y="-99.8" font-family="Times,serif" font-size="14.00">ReservationDetailsService</text>
</g>
<!-- ReservationDetailsService&#45;&gt;CartItemsModule -->
<g id="edge5" class="edge">
<title>ReservationDetailsService&#45;&gt;CartItemsModule</title>
<path fill="none" stroke="black" d="M137,-122.11C137,-141.34 137,-169 137,-169 137,-169 354.67,-169 354.67,-169"/>
<polygon fill="black" stroke="black" points="354.67,-172.5 364.67,-169 354.67,-165.5 354.67,-172.5"/>
</g>
</g>
</svg>
