<?xml version="1.0" encoding="UTF-8" standalone="no"?>
<!DOCTYPE svg PUBLIC "-//W3C//DTD SVG 1.1//EN"
 "http://www.w3.org/Graphics/SVG/1.1/DTD/svg11.dtd">
<!-- Generated by graphviz version 2.47.0 (20210316.0004)
 -->
<!-- Title: dependencies Pages: 1 -->
<svg width="504pt" height="284pt"
 viewBox="0.00 0.00 504.00 284.00" xmlns="http://www.w3.org/2000/svg" xmlns:xlink="http://www.w3.org/1999/xlink">
<g id="graph0" class="graph" transform="scale(1 1) rotate(0) translate(4 280)">
<title>dependencies</title>
<polygon fill="white" stroke="transparent" points="-4,4 -4,-280 500,-280 500,4 -4,4"/>
<text text-anchor="start" x="227.01" y="-42.4" font-family="Times-12" font-weight="bold" font-size="14.00">Legend</text>
<polygon fill="#ffffb3" stroke="transparent" points="14,-10 14,-30 34,-30 34,-10 14,-10"/>
<text text-anchor="start" x="37.63" y="-15.4" font-family="Times-12" font-size="14.00"> &#160;Declarations</text>
<polygon fill="#8dd3c7" stroke="transparent" points="127,-10 127,-30 147,-30 147,-10 127,-10"/>
<text text-anchor="start" x="150.73" y="-15.4" font-family="Times-12" font-size="14.00"> &#160;Module</text>
<polygon fill="#80b1d3" stroke="transparent" points="213,-10 213,-30 233,-30 233,-10 213,-10"/>
<text text-anchor="start" x="236.78" y="-15.4" font-family="Times-12" font-size="14.00"> &#160;Bootstrap</text>
<polygon fill="#fdb462" stroke="transparent" points="310,-10 310,-30 330,-30 330,-10 310,-10"/>
<text text-anchor="start" x="333.67" y="-15.4" font-family="Times-12" font-size="14.00"> &#160;Providers</text>
<polygon fill="#fb8072" stroke="transparent" points="406,-10 406,-30 426,-30 426,-10 406,-10"/>
<text text-anchor="start" x="429.73" y="-15.4" font-family="Times-12" font-size="14.00"> &#160;Exports</text>
<g id="clust1" class="cluster">
<title>cluster_TicketsModule</title>
<polygon fill="none" stroke="black" stroke-dasharray="1,5" points="86,-70 86,-268 410,-268 410,-70 86,-70"/>
</g>
<g id="clust6" class="cluster">
<title>cluster_TicketsModule_providers</title>
<polygon fill="none" stroke="black" points="250,-78 250,-130 402,-130 402,-78 250,-78"/>
</g>
<g id="clust4" class="cluster">
<title>cluster_TicketsModule_exports</title>
<polygon fill="none" stroke="black" points="188,-208 188,-260 306,-260 306,-208 188,-208"/>
</g>
<g id="clust3" class="cluster">
<title>cluster_TicketsModule_imports</title>
<polygon fill="none" stroke="black" points="94,-78 94,-130 242,-130 242,-78 94,-78"/>
</g>
<!-- TransactionsModule -->
<g id="node1" class="node">
<title>TransactionsModule</title>
<polygon fill="#8dd3c7" stroke="black" points="233.58,-122 230.58,-126 209.58,-126 206.58,-122 102.42,-122 102.42,-86 233.58,-86 233.58,-122"/>
<text text-anchor="middle" x="168" y="-99.8" font-family="Times,serif" font-size="14.00">TransactionsModule</text>
</g>
<!-- TicketsModule -->
<g id="node2" class="node">
<title>TicketsModule</title>
<polygon fill="#8dd3c7" stroke="black" points="297.26,-187 294.26,-191 273.26,-191 270.26,-187 196.74,-187 196.74,-151 297.26,-151 297.26,-187"/>
<text text-anchor="middle" x="247" y="-164.8" font-family="Times,serif" font-size="14.00">TicketsModule</text>
</g>
<!-- TransactionsModule&#45;&gt;TicketsModule -->
<g id="edge1" class="edge">
<title>TransactionsModule&#45;&gt;TicketsModule</title>
<path fill="none" stroke="black" d="M215.08,-122.11C215.08,-122.11 215.08,-140.99 215.08,-140.99"/>
<polygon fill="black" stroke="black" points="211.58,-140.99 215.08,-150.99 218.58,-140.99 211.58,-140.99"/>
</g>
<!-- TicketsService  -->
<g id="node3" class="node">
<title>TicketsService </title>
<polygon fill="#fb8072" stroke="black" points="298.19,-252 195.81,-252 195.81,-216 298.19,-216 298.19,-252"/>
<text text-anchor="middle" x="247" y="-229.8" font-family="Times,serif" font-size="14.00">TicketsService </text>
</g>
<!-- TicketsModule&#45;&gt;TicketsService  -->
<g id="edge2" class="edge">
<title>TicketsModule&#45;&gt;TicketsService </title>
<path fill="none" stroke="black" stroke-dasharray="5,2" d="M247,-187.11C247,-187.11 247,-205.99 247,-205.99"/>
<polygon fill="black" stroke="black" points="243.5,-205.99 247,-215.99 250.5,-205.99 243.5,-205.99"/>
</g>
<!-- TicketsService -->
<g id="node4" class="node">
<title>TicketsService</title>
<ellipse fill="#fdb462" stroke="black" cx="326" cy="-104" rx="68.33" ry="18"/>
<text text-anchor="middle" x="326" y="-99.8" font-family="Times,serif" font-size="14.00">TicketsService</text>
</g>
<!-- TicketsService&#45;&gt;TicketsModule -->
<g id="edge3" class="edge">
<title>TicketsService&#45;&gt;TicketsModule</title>
<path fill="none" stroke="black" d="M277.48,-116.84C277.48,-116.84 277.48,-140.52 277.48,-140.52"/>
<polygon fill="black" stroke="black" points="273.98,-140.52 277.48,-150.52 280.98,-140.52 273.98,-140.52"/>
</g>
</g>
</svg>
