<?xml version="1.0" encoding="UTF-8" standalone="no"?>
<!DOCTYPE svg PUBLIC "-//W3C//DTD SVG 1.1//EN"
 "http://www.w3.org/Graphics/SVG/1.1/DTD/svg11.dtd">
<!-- Generated by graphviz version 2.47.0 (20210316.0004)
 -->
<!-- Title: dependencies Pages: 1 -->
<svg width="678pt" height="284pt"
 viewBox="0.00 0.00 678.00 284.00" xmlns="http://www.w3.org/2000/svg" xmlns:xlink="http://www.w3.org/1999/xlink">
<g id="graph0" class="graph" transform="scale(1 1) rotate(0) translate(4 280)">
<title>dependencies</title>
<polygon fill="white" stroke="transparent" points="-4,4 -4,-280 674,-280 674,4 -4,4"/>
<text text-anchor="start" x="314.01" y="-42.4" font-family="Times-12" font-weight="bold" font-size="14.00">Legend</text>
<polygon fill="#ffffb3" stroke="transparent" points="101,-10 101,-30 121,-30 121,-10 101,-10"/>
<text text-anchor="start" x="124.63" y="-15.4" font-family="Times-12" font-size="14.00"> &#160;Declarations</text>
<polygon fill="#8dd3c7" stroke="transparent" points="214,-10 214,-30 234,-30 234,-10 214,-10"/>
<text text-anchor="start" x="237.73" y="-15.4" font-family="Times-12" font-size="14.00"> &#160;Module</text>
<polygon fill="#80b1d3" stroke="transparent" points="300,-10 300,-30 320,-30 320,-10 300,-10"/>
<text text-anchor="start" x="323.78" y="-15.4" font-family="Times-12" font-size="14.00"> &#160;Bootstrap</text>
<polygon fill="#fdb462" stroke="transparent" points="397,-10 397,-30 417,-30 417,-10 397,-10"/>
<text text-anchor="start" x="420.67" y="-15.4" font-family="Times-12" font-size="14.00"> &#160;Providers</text>
<polygon fill="#fb8072" stroke="transparent" points="493,-10 493,-30 513,-30 513,-10 493,-10"/>
<text text-anchor="start" x="516.73" y="-15.4" font-family="Times-12" font-size="14.00"> &#160;Exports</text>
<g id="clust1" class="cluster">
<title>cluster_TransactionsModule</title>
<polygon fill="none" stroke="black" stroke-dasharray="1,5" points="8,-70 8,-268 662,-268 662,-70 8,-70"/>
</g>
<g id="clust4" class="cluster">
<title>cluster_TransactionsModule_exports</title>
<polygon fill="none" stroke="black" points="259,-208 259,-260 409,-260 409,-208 259,-208"/>
</g>
<g id="clust6" class="cluster">
<title>cluster_TransactionsModule_providers</title>
<polygon fill="none" stroke="black" points="16,-78 16,-130 654,-130 654,-78 16,-78"/>
</g>
<!-- TransactionsService  -->
<g id="node1" class="node">
<title>TransactionsService </title>
<polygon fill="#fb8072" stroke="black" points="400.51,-252 267.49,-252 267.49,-216 400.51,-216 400.51,-252"/>
<text text-anchor="middle" x="334" y="-229.8" font-family="Times,serif" font-size="14.00">TransactionsService </text>
</g>
<!-- TransactionsModule -->
<g id="node2" class="node">
<title>TransactionsModule</title>
<polygon fill="#8dd3c7" stroke="black" points="399.58,-187 396.58,-191 375.58,-191 372.58,-187 268.42,-187 268.42,-151 399.58,-151 399.58,-187"/>
<text text-anchor="middle" x="334" y="-164.8" font-family="Times,serif" font-size="14.00">TransactionsModule</text>
</g>
<!-- TransactionsModule&#45;&gt;TransactionsService  -->
<g id="edge1" class="edge">
<title>TransactionsModule&#45;&gt;TransactionsService </title>
<path fill="none" stroke="black" stroke-dasharray="5,2" d="M334,-187.11C334,-187.11 334,-205.99 334,-205.99"/>
<polygon fill="black" stroke="black" points="330.5,-205.99 334,-215.99 337.5,-205.99 330.5,-205.99"/>
</g>
<!-- QueryHelperService -->
<g id="node3" class="node">
<title>QueryHelperService</title>
<ellipse fill="#fdb462" stroke="black" cx="556" cy="-104" rx="90.29" ry="18"/>
<text text-anchor="middle" x="556" y="-99.8" font-family="Times,serif" font-size="14.00">QueryHelperService</text>
</g>
<!-- QueryHelperService&#45;&gt;TransactionsModule -->
<g id="edge2" class="edge">
<title>QueryHelperService&#45;&gt;TransactionsModule</title>
<path fill="none" stroke="black" d="M556,-122.11C556,-141.34 556,-169 556,-169 556,-169 409.71,-169 409.71,-169"/>
<polygon fill="black" stroke="black" points="409.71,-165.5 399.71,-169 409.71,-172.5 409.71,-165.5"/>
</g>
<!-- ReservationDetailsService -->
<g id="node4" class="node">
<title>ReservationDetailsService</title>
<ellipse fill="#fdb462" stroke="black" cx="334" cy="-104" rx="113.43" ry="18"/>
<text text-anchor="middle" x="334" y="-99.8" font-family="Times,serif" font-size="14.00">ReservationDetailsService</text>
</g>
<!-- ReservationDetailsService&#45;&gt;TransactionsModule -->
<g id="edge3" class="edge">
<title>ReservationDetailsService&#45;&gt;TransactionsModule</title>
<path fill="none" stroke="black" d="M334,-122.11C334,-122.11 334,-140.99 334,-140.99"/>
<polygon fill="black" stroke="black" points="330.5,-140.99 334,-150.99 337.5,-140.99 330.5,-140.99"/>
</g>
<!-- TransactionsService -->
<g id="node5" class="node">
<title>TransactionsService</title>
<ellipse fill="#fdb462" stroke="black" cx="113" cy="-104" rx="89.16" ry="18"/>
<text text-anchor="middle" x="113" y="-99.8" font-family="Times,serif" font-size="14.00">TransactionsService</text>
</g>
<!-- TransactionsService&#45;&gt;TransactionsModule -->
<g id="edge4" class="edge">
<title>TransactionsService&#45;&gt;TransactionsModule</title>
<path fill="none" stroke="black" d="M113,-122.11C113,-141.34 113,-169 113,-169 113,-169 258.29,-169 258.29,-169"/>
<polygon fill="black" stroke="black" points="258.29,-172.5 268.29,-169 258.29,-165.5 258.29,-172.5"/>
</g>
</g>
</svg>
